<svg xmlns="http://www.w3.org/2000/svg" viewBox="0 0 511 511" width="512" height="512" enable-background="new 0 0 511 511"><g fill="#E62D38"><path d="M95.5 416c-1.97 0-3.91.8-5.3 2.2-1.4 1.39-2.2 3.33-2.2 5.3 0 1.97.8 3.91 2.2 5.3 1.39 1.4 3.33 2.2 5.3 2.2 1.97 0 3.91-.8 5.3-2.2 1.4-1.39 2.2-3.33 2.2-5.3 0-1.97-.8-3.91-2.2-5.3-1.39-1.4-3.33-2.2-5.3-2.2zM290.2 418.2c-1.4 1.39-2.2 3.33-2.2 5.3 0 1.97.8 3.91 2.2 5.3 1.39 1.4 3.33 2.2 5.3 2.2 1.97 0 3.91-.8 5.3-2.2 1.4-1.39 2.2-3.33 2.2-5.3 0-1.97-.8-3.91-2.2-5.3-1.39-1.4-3.33-2.2-5.3-2.2-1.97 0-3.91.8-5.3 2.2zM271.5 416h-152c-4.142 0-7.5 3.358-7.5 7.5s3.358 7.5 7.5 7.5h152c4.142 0 7.5-3.358 7.5-7.5s-3.358-7.5-7.5-7.5zM495 249.234v-147.468c9.29-3.138 16-11.93 16-22.266 0-12.958-10.542-23.5-23.5-23.5-11.794 0-21.584 8.735-23.248 20.074l-6.466 6.25-390.849 142.128c-.36.131-.698.294-1.025.472-4.308-5.431-10.958-8.924-18.412-8.924-12.958 0-23.5 10.542-23.5 23.5 0 10.336 6.71 19.128 16 22.266v74.234h-24.5c-8.547 0-15.5 6.953-15.5 15.5v40c0 8.547 6.953 15.5 15.5 15.5h53.181c-2.965 4.802-4.681 10.454-4.681 16.5 0 17.369 14.131 31.5 31.5 31.5h200c17.369 0 31.5-14.131 31.5-31.5s-14.131-31.5-31.5-31.5h-24.5v-45.614l209-231.393v134.241c-9.29 3.138-16 11.93-16 22.266v8c0 10.336 6.71 19.128 16 22.266v9.734c0 4.142 3.358 7.5 7.5 7.5 4.687 0 8.5 3.813 8.5 8.5s-3.813 8.5-8.5 8.5-8.5-3.813-8.5-8.5c0-4.142-3.358-7.5-7.5-7.5s-7.5 3.358-7.5 7.5c0 12.958 10.542 23.5 23.5 23.5s23.5-10.542 23.5-23.5c0-10.337-6.708-19.136-16-22.273v-3.461c9.29-3.138 16-11.93 16-22.266v-8c0-10.336-6.71-19.128-16-22.266zm-294.926 88.393c-2.658-1.046-5.549-1.627-8.574-1.627h-8.5v-16.5c0-.276.224-.5.5-.5h16.5v16.362c0 .759.03 1.513.074 2.265zm14.926-18.627h16.5c13.509 0 24.5 10.991 24.5 24.5v22.057l-23.23-6.637c-10.462-2.989-17.77-12.677-17.77-23.558v-16.362zm31.842-11.898l219.075-211.773 2.146-.78c.36-.131.698-.294 1.025-.472 1.481 1.867 3.236 3.507 5.209 4.852l-206.614 228.751c-4.056-9.239-11.54-16.643-20.841-20.578zm240.658-236.102c4.687 0 8.5 3.813 8.5 8.5s-3.813 8.5-8.5 8.5-8.5-3.813-8.5-8.5 3.813-8.5 8.5-8.5zm-415.437 167.548l359.256-130.638-202.852 196.09h-44.967c-8.547 0-15.5 6.953-15.5 15.5v16.5h-13.394l-85.803-85.803-.266-.241c1.573-3.151 2.463-6.701 2.463-10.456l-.017-.654c.362-.073.723-.168 1.08-.298zm-24.563-7.548c4.687 0 8.5 3.813 8.5 8.5s-3.813 8.5-8.5 8.5-8.5-3.813-8.5-8.5 3.813-8.5 8.5-8.5zm7.5 30.766c1.018-.344 2.005-.754 2.956-1.229l.241.266 75.197 75.197h-78.394v-74.234zm-40 129.734v-16.5h16.5c4.142 0 7.5-3.358 7.5-7.5s-3.358-7.5-7.5-7.5h-16.5v-8.5c0-.276.224-.5.5-.5h176c4.687 0 8.5 3.813 8.5 8.5v.5h-136.5c-4.142 0-7.5 3.358-7.5 7.5s3.358 7.5 7.5 7.5h136.5v17h-184.5c-.276 0-.5-.224-.5-.5zm297 32c0 9.098-7.402 16.5-16.5 16.5h-200c-9.098 0-16.5-7.402-16.5-16.5s7.402-16.5 16.5-16.5h200c9.098 0 16.5 7.402 16.5 16.5zm-97-31.5v-25.698c3.97 3.16 8.577 5.591 13.648 7.041l27.352 7.814v10.843h-41zm281-112.5c0 4.687-3.813 8.5-8.5 8.5s-8.5-3.813-8.5-8.5v-8c0-4.687 3.813-8.5 8.5-8.5s8.5 3.813 8.5 8.5v8z"/></g></svg>