<svg xmlns="http://www.w3.org/2000/svg" viewBox="0 0 511.999 511.999" width="512" height="512" enable-background="new 0 0 511.999 511.999"><path d="M255.435 359.376c-19.334 0-35.062 15.729-35.062 35.062s15.728 35.062 35.062 35.062c19.334 0 35.062-15.729 35.062-35.062s-15.729-35.062-35.062-35.062zm0 49.725c-8.085 0-14.663-6.577-14.663-14.663s6.578-14.663 14.663-14.663c8.086 0 14.663 6.578 14.663 14.663s-6.577 14.663-14.663 14.663zM297.249 71.197h-83.629c-5.633 0-10.199 4.567-10.199 10.199v142.395c0 5.632 4.566 10.199 10.199 10.199h83.628c5.632 0 10.199-4.567 10.199-10.199v-142.395c.001-5.633-4.565-10.199-10.198-10.199zm-10.2 142.395h-63.23v-121.997h63.23v121.997zM266.171 108.49h-21.472c-5.633 0-10.199 4.567-10.199 10.199s4.566 10.199 10.199 10.199h21.472c5.632 0 10.199-4.567 10.199-10.199s-4.567-10.199-10.199-10.199zM266.171 141.264h-21.472c-5.633 0-10.199 4.567-10.199 10.199s4.566 10.199 10.199 10.199h21.472c5.632 0 10.199-4.567 10.199-10.199s-4.567-10.199-10.199-10.199zM266.171 174.037h-21.472c-5.633 0-10.199 4.567-10.199 10.199s4.566 10.199 10.199 10.199h21.472c5.632 0 10.199-4.567 10.199-10.199s-4.567-10.199-10.199-10.199zM479.105 21.471h-118.474c-8.914 0-17.012 3.51-22.979 9.201-5.968-5.691-14.065-9.201-22.979-9.201h-118.475c-8.655 0-16.535 3.365-22.414 8.849-5.879-5.483-13.759-8.849-22.414-8.849h-118.474c-18.139 0-32.896 14.757-32.896 32.896v403.264c0 18.139 14.757 32.896 32.896 32.896h118.474c8.655 0 16.535-3.365 22.414-8.849 5.879 5.484 13.759 8.849 22.414 8.849h118.475c8.914 0 17.012-3.51 22.979-9.201 5.968 5.691 14.065 9.201 22.979 9.201h118.474c18.138 0 32.895-14.757 32.895-32.896v-403.264c0-18.139-14.757-32.896-32.895-32.896zm-315.651 439.288c-1.393 5.379-6.276 9.369-12.084 9.369h-118.474c-6.891 0-12.497-5.607-12.497-12.498v-403.263c0-6.891 5.607-12.497 12.497-12.497h118.474c5.809 0 10.691 3.99 12.085 9.37-.098 1.03-.153 2.073-.153 3.127v403.264c0 1.056.055 2.098.152 3.128zm163.999-3.128c0 6.774-5.853 12.497-12.781 12.497h-118.474c-5.809 0-10.691-3.99-12.085-9.37.098-1.03.153-2.073.153-3.128v-403.263c0-1.056-.055-2.098-.153-3.127 1.394-5.379 6.276-9.37 12.085-9.37h118.475c6.927 0 12.78 5.723 12.78 12.497v403.264zm164.149-.001c0 6.892-5.607 12.498-12.497 12.498h-118.474c-6.927 0-12.78-5.723-12.78-12.498v-403.263c0-6.774 5.852-12.497 12.78-12.497h118.474c6.891 0 12.497 5.607 12.497 12.497v403.263zM419.868 359.376c-19.333 0-35.062 15.729-35.062 35.062s15.729 35.062 35.062 35.062 35.062-15.729 35.062-35.062c-.001-19.333-15.73-35.062-35.062-35.062zm0 49.725c-8.086 0-14.663-6.577-14.663-14.663s6.577-14.663 14.663-14.663 14.663 6.578 14.663 14.663-6.578 14.663-14.663 14.663zM461.681 71.197h-83.628c-5.632 0-10.199 4.567-10.199 10.199v142.395c0 5.632 4.567 10.199 10.199 10.199h83.628c5.632 0 10.199-4.567 10.199-10.199v-142.395c0-5.633-4.566-10.199-10.199-10.199zm-10.199 142.395h-63.23v-121.997h63.23v121.997zM430.604 108.49h-21.472c-5.632 0-10.199 4.567-10.199 10.199s4.566 10.199 10.199 10.199h21.472c5.632 0 10.199-4.567 10.199-10.199s-4.567-10.199-10.199-10.199zM430.604 141.264h-21.472c-5.632 0-10.199 4.567-10.199 10.199s4.566 10.199 10.199 10.199h21.472c5.632 0 10.199-4.567 10.199-10.199s-4.567-10.199-10.199-10.199zM430.604 174.037h-21.472c-5.632 0-10.199 4.567-10.199 10.199s4.566 10.199 10.199 10.199h21.472c5.632 0 10.199-4.567 10.199-10.199s-4.567-10.199-10.199-10.199zM92.132 359.376c-19.334 0-35.062 15.729-35.062 35.062s15.729 35.062 35.062 35.062 35.062-15.729 35.062-35.062-15.728-35.062-35.062-35.062zm0 49.725c-8.085 0-14.663-6.577-14.663-14.663s6.578-14.663 14.663-14.663 14.663 6.578 14.663 14.663-6.577 14.663-14.663 14.663zM133.947 71.197h-83.629c-5.633 0-10.199 4.567-10.199 10.199v142.395c0 5.632 4.566 10.199 10.199 10.199h83.629c5.633 0 10.199-4.567 10.199-10.199v-142.395c0-5.633-4.566-10.199-10.199-10.199zm-73.43 142.395v-121.997h63.231v121.997h-63.231zM102.869 108.49h-21.472c-5.633 0-10.199 4.567-10.199 10.199s4.566 10.199 10.199 10.199h21.472c5.633 0 10.199-4.567 10.199-10.199s-4.566-10.199-10.199-10.199zM102.869 141.264h-21.472c-5.633 0-10.199 4.567-10.199 10.199s4.566 10.199 10.199 10.199h21.472c5.633 0 10.199-4.567 10.199-10.199s-4.566-10.199-10.199-10.199zM102.869 174.037h-21.472c-5.633 0-10.199 4.567-10.199 10.199s4.566 10.199 10.199 10.199h21.472c5.633 0 10.199-4.567 10.199-10.199s-4.566-10.199-10.199-10.199zM49.976 249.93c-5.633 0-10.199 4.567-10.199 10.199v62.215c0 5.632 4.566 10.199 10.199 10.199s10.199-4.567 10.199-10.199v-62.214c0-5.632-4.566-10.2-10.199-10.2zM49.976 341.723c-5.633 0-10.199 4.567-10.199 10.199v2.04c0 5.632 4.566 10.199 10.199 10.199s10.199-4.567 10.199-10.199v-2.04c0-5.632-4.566-10.199-10.199-10.199z" fill="#E62D38"/></svg>