<svg xmlns="http://www.w3.org/2000/svg" xmlns:xlink="http://www.w3.org/1999/xlink" viewBox="0 0 512 126.8" enable-background="new 0 0 512 126.8"><style type="text/css">.st0{fill:#312E2A;} .st1{fill:#FFFFFF;} .st2{fill:#8E261E;} .st3{fill-rule:evenodd;clip-rule:evenodd;fill:#312E2A;} .st4{fill-rule:evenodd;clip-rule:evenodd;fill:#FFFFFF;} .st5{fill:url(#SVGID_3_);stroke:#312E2A;stroke-width:0.3485;} .st6{fill:url(#SVGID_4_);stroke:#312E2A;stroke-width:0.3485;} .st7{fill:url(#SVGID_5_);stroke:#312E2A;stroke-width:0.3485;} .st8{fill:url(#SVGID_6_);stroke:#312E2A;stroke-width:0.3485;} .st9{fill:url(#SVGID_7_);stroke:#312E2A;stroke-width:0.3485;} .st10{fill:url(#SVGID_8_);stroke:#312E2A;stroke-width:0.3485;} .st11{fill:url(#SVGID_9_);stroke:#312E2A;stroke-width:0.3485;} .st12{fill:#BBBAB9;} .st13{fill:url(#SVGID_10_);stroke:#312E2A;stroke-width:0.3485;} .st14{fill:url(#SVGID_11_);stroke:#312E2A;stroke-width:0.3485;} .st15{fill:url(#SVGID_12_);stroke:#312E2A;stroke-width:0.3485;}</style><path class="st0" d="M80.8 84.1l-1.7-3.7c-1.1-2.2-4.1-8.8-6.7-14.3-.7.6-1.5 1.2-2.2 1.9l-.2 1.3c-.3 3-.7 6-1 9.1l-.6 5.7h-55.9l.8-7.1c2.7-23.8 3.4-31 4.1-37.3 0 0 .9-8.4 1.4-13.8h-18.8l.7-7.1c.4-4.4.9-8.8 1.4-13.2l.6-5.6h144l-50.2 46.1 18.7 38h-34.4zm-6.1-56l2.3-2.1h-2.1l-.2 2.1z"/><path class="st1" d="M81.9 82.4l-1.3-2.7c-1.2-2.5-4.9-10.4-7.6-16.2-1.5 1.2-2.9 2.4-4.4 3.7l-.2 2c-.3 3-.7 6-1 9.1l-.5 4.2h-52.5l.6-5.3c2.7-23.7 3.4-30.9 4.1-37.2 0 0 1.1-10.7 1.6-15.6h-18.9l.5-5.2c.4-4.4.9-8.8 1.4-13.1l.4-4.3h138.2l-48 44.1 18.1 36.7h-30.5zm-9.4-50l8.7-8.1h-7.8l-.9 8.1z"/><path class="st2" d="M130.2 6.4h-121.8c-.4 4.4-.9 8.8-1.3 13.1h18.9l-2.1 20c-.7 6.7-1.4 13.3-4.2 38.2h18.5c2.8-24.9 3.5-31.5 4.2-38.2l2.1-20h48.7l-26.8 25.2 1.1-10 1.1-10h-18.6l-3 26.6-2.9 26.5h18.5c.5-4.3 1-8.6 1.4-12.9 3.5-3 7-5.9 10.6-8.9l10.2 21.8h20l-16.3-33 41.7-38.4z"/><defs><path id="SVGID_1_" d="M130.2 6.4h-121.8c-.4 4.4-.9 8.8-1.3 13.1h18.9l-2.1 20c-.7 6.7-1.4 13.3-4.2 38.2h18.5c2.8-24.9 3.5-31.5 4.2-38.2l2.1-20h48.7l-26.8 25.2 1.1-10 1.1-10h-18.6l-3 26.6-2.9 26.5h18.5c.5-4.3 1-8.6 1.4-12.9 3.5-3 7-5.9 10.6-8.9l10.2 21.8h20l-16.3-33 41.7-38.4z"/></defs><clipPath id="SVGID_2_"><use xlink:href="#SVGID_1_" overflow="visible"/></clipPath><path class="st3" d="M157.5 84.6h-1.3l-1.2-.1-.8-.1h-.4l-.8-.1-.8-.1-.4-.1-.4-.1-.8-.2-.8-.2-.8-.2-.4-.1-.7-.2-.7-.3-.7-.3-.4-.2-.6-.3-.7-.4-.7-.4-.7-.4-.6-.4-.6-.5-.6-.5-.6-.4-.5-.5-.5-.5-.5-.6-.5-.6-.4-.6-.4-.6-.4-.6-.4-.6-.1-.1-.3 2.8v.4l-.1.7-.6 5.9h-19.1l-19-37.9 7.2-5.6h46.7l-.1.8.6-.2.6-.2.6-.2.6-.1.6-.1.6-.1.6-.1.6-.1.6-.1.6-.1.6-.1h6.299999999999999l.6.1.6.1.6.1.6.1.6.1.6.1.6.1.6.1.6.2.6.2.6.2.6.2.6.2.6.2.6.2.5.2.5.3.5.3.5.3.6.3.3-3.1h62.6l-.1 1.3 1.4-1.3h38.5l.9.1.9.1.9.1.9.2.9.2.9.2.9.3.9.3.8.4.8.4.8.5.8.5.7.5.7.6v.1l2.4-4.4h21.2l1.8 5.9.2.5.8-6.4h47.4l-.9 7.3-.1 1-.1 1-.5 3.9v.5l-.4 3-.2 1.5-.1.5-.1 1-.1.5-.8 6.3-1.1 8.8-.1.5-.9 7.9h-57.3l-1.2-5.2h-2.5l-.5 1-1.8 4.1h-59l-2.1-4.5-.5 4.5h-62.4l.3-2.4-.6.3-.4.2-.4.2-.4.2-.4.2-.8.3-.8.3-.8.2-.4.1-.8.2-.8.2-.8.2-.4.1-.4.1-.8.1-.8.1-.9.1-.9.1h-2.2l-1.1-.4zm116-7.2l2.7-4.9h-2.1l-.6 4.9z"/><path class="st4" d="M136.6 64.4l-.5 4.8v.4l-.2 1.1v.7l-.1.4v.7l-.1.4v.4l-.1.3v.8l-.1.7-.1.4v.3l-.1.8v.7l-.1.7-.5 4.4h-16.8l-17.9-35.7 5.9-4.4h44.2l-.2 1.6.3-.1.5-.2.5-.2.6-.2.5-.1.6-.2.5-.2.6-.1.6-.1.5-.2.6-.1.6-.1h.6l.6-.1.6-.1h.6l.6-.1h1.2l.6-.1h1.2999999999999998l.6.1h1.2999999999999998l.6.1h.6l.6.1h.6l.6.1.5.1.6.1.6.2.5.1.6.1.6.2.5.2.5.1.6.2.5.2.5.2.5.3.5.2.5.3.5.2.4.3.5.3.4.3.4.3.5.3.4.4.1.1.4-4.5h59.3l-.4 3.9.3-.3.4-.4.4-.4.4-.4.4-.3.4-.4 1.9-1.7h37.699999999999996l.9.1.8.1.9.1.8.1.8.2.8.2.8.3.7.2.8.4.7.3.7.4.6.5.7.5.6.5.5.5.5.6.5.6v.1l.4-.8.3-.4.2-.5.3-.5.3-.5 1.6-3h19l1.1 3.8.2.4.1.5.2.5.1.5.2.5.1.5.2.5.1.5.5 1.4.1.5.3 1 .2.5.1.5.3 1 .1.2v-.5l.1-.5.1-.5.1-1v-.5l.2-1.4.1-.5.1-1v-.5l.1-.5.1-.5v-.5l.1-.4.5-4.5h21.1l-.7 5.2v.7l-.1.4v.3l-.1 1-.1.4-.2 2-.1.4v.5h1.8v-.1l.1-1 .1-.4v-.3l.1-.7v-.3l.1-.4v-.3l.1-.4v-.3l.1-1 .1-.4v-.7l.1-.3.5-4.3h21.2l-.7 5.4-.1 1-.1.5v.4l-.1.5v.5l-.1.5-.1.5-.1 1v.5l-.1.5v.5l-.1.4-.1.5v.5l-.1.5v.5l-.1.5-.1.5v.5l-.1.5v.4l-.1.5-.1.5v.5l-.1.5v.5l-.1.5-.1.5v.5l-.1.4v.5l-.1.5-.1.5v.5l-.1.5v.5l-.1.5v.4l-.1.5-.1.5v.5l-.1.5-.2 1.5v.4l-.1.5v.5l-.1.5-.1.5v.5l-.1.5v.5l-.1.5v.4l-.1.5-.1.5v.5l-.1 1-.6 4.4h-21.1l.6-5.3.1-.8.1-.4v-.3l.1-.4v-.4l.1-.4.1-1.2v-.4l.1-.4v-.4l.1-.4v-.4l.1-.4.1-.8v-.2h-1.8l-.1.4v.8l-.1.8-.1.3-.2 1.6v.4l-.1.8-.1.4v.4l-.1.4v.4l-.2 1.6-.5 4.3h-31.5l-.9-3.9-.1-.3-.1-.3v-.3l-.1-.3h-4.9v.1l-.3.6-.3.7-.3.6-1.4 3.1h-22.5l3.7-6.9.5-.9.3-.5.2-.5.8-1.4.3-.5.6-1.2h-.4l-.5.1-.4.1h-.9l-.5.1h-1.4l-.5.1h-1.9l-.1.3v.7l-.1.4v.4l-.1.3v.7l-.1.4v.4l-.1.7-.1.3v.8l-.1.3v.4l-.1.4v.7l-.6 4.3h-32.8l-1.5-3.1-.2-.4-.2-.4-.1-.4-.2-.4-.2-.4-.2-.4-.2-.4-.2-.4-.2-.4-.2-.4-.2-.4-.2-.4-.2-.4-.1-.4-.1-.1-.1.5v.5l-.1.5v.5l-.1.5-.2 1.9-.5 4.4h-36.3l.7-6 .1-.4v-.4l.1-.8v-.4l.2-1.2v-.8l.1-.4v-.3l.1-.4v-.6l.1-.3v-.4l.1-.4v-.5l.1-.5v-.5l.1-.5.1-.6v-.6l.1-.6.1-.7.1-.6v-.7l.1-.6.1-.7.1-1.3.1-.6.1-.6h-1.8l-.1.9-.1.6-.1.6v.7l-.1.6-.1.7-.1.6-.1.7v.6l-.1.7-.1.6-.1.6v.6l-.1.5v.6l-.1.5-.1.4v.8l-.1.3v.5l-.1.4v.4l-.1.4v.4l-.1.4v.8l-.1.4v.4l-.1.8-.1.3v.8l-.1.4-.5 4.4h-21l.4-3.8-.2.2-.6.3-.6.4-.7.4-.6.3-.6.3-.4.2-.3.1-.4.2-.3.1-.4.1-.4.2-.3.1-.4.1-.4.1-.3.1-.4.1-.4.1-.4.1-.3.1-.4.1-.4.1-.4.1h-.4l-.4.1h-.4l-.4.1h-.4l-.4.1h-.4l-.4.1h-1.3l-.4.1h-2.5l-.4-.1h-1.6l-.4-.1h-.4l-.4-.1h-.4l-.4-.1h-.4l-.3-.1h-.4l-.4-.1-.4-.1h-.3l-.4-.1-.4-.1-.3-.1-.4-.1-.3-.1-.4-.1-.3-.1-.4-.1-.3-.1-.4-.2-.3-.1-.3-.1-.4-.2-.6-.3-.6-.3-.6-.4-.6-.3-.6-.4-.6-.4-.5-.5-.5-.4-.5-.5-.5-.5-.4-.5-.5-.5-.4-.6-.4-.5-.3-.6-.4-.6-.1-.3-.2-.3-.2-.3-.1-.4-.2-.3-.1-.3-.1-.4-.2-.3-.1-.4-.1-.3-.1-.4-.1-.3-.1-.4v-.3l-.1-.4-.1-.4v-.3l-.1-.4v-.7l-.1-.4v-1.5z"/><linearGradient id="SVGID_3_" gradientUnits="userSpaceOnUse" x1="160.108" y1="46.188" x2="160.108" y2="78.52"><stop offset="0" stop-color="#BC2D21"/><stop offset=".28" stop-color="#B52C21"/><stop offset=".684" stop-color="#A2291F"/><stop offset="1" stop-color="#8E261E"/></linearGradient><path class="st5" d="M154 69.2c-1.2-1.4-1.6-3.7-1.2-6.8.3-3.2 1.2-5.5 2.7-6.9 1.5-1.4 3.3-2.1 5.5-2.1 2.3 0 4.1.7 5.3 2 1.2 1.4 1.6 3.5 1.3 6.5-.4 3.5-1.3 5.9-2.7 7.3-1.4 1.3-3.3 2-5.7 2-2.3.1-4.1-.6-5.2-2m-6.1-18.7c-1.8 1.4-3.2 3.1-4.2 5.1-1 2-1.7 4.3-1.9 6.8-.2 1.8-.2 3.5.1 5 .2 1.5.7 2.9 1.4 4.1 1.4 2.4 3.3 4.2 5.8 5.3 2.5 1.1 5.7 1.7 9.7 1.7 3.9 0 7.3-.6 10-1.9 2.8-1.3 5-3.1 6.6-5.4.8-1.2 1.5-2.5 2-4s.9-3.2 1.1-5c.3-2.5.1-4.8-.5-6.7-.6-2-1.6-3.6-3-5-2.9-2.8-7.3-4.2-13.2-4.2-5.8-.1-10.4 1.3-13.9 4.2"/><linearGradient id="SVGID_4_" gradientUnits="userSpaceOnUse" x1="198.283" y1="46.724" x2="198.283" y2="77.995"><stop offset="0" stop-color="#BC2D21"/><stop offset=".28" stop-color="#B52C21"/><stop offset=".684" stop-color="#A2291F"/><stop offset="1" stop-color="#8E261E"/></linearGradient><path class="st6" d="M183 46.7c-.6 5.2-1.1 10.4-1.7 15.7l-1.7 15.6h10.9l.7-6.3c.2-2.1 1.6-14 1.9-16.1h11.9l-1.9 16.1-.7 6.3h11c.6-5.2 1.2-10.4 1.7-15.6.6-5.2 1.1-10.4 1.7-15.7h-33.8z"/><linearGradient id="SVGID_5_" gradientUnits="userSpaceOnUse" x1="237.958" y1="46.724" x2="237.958" y2="77.995"><stop offset="0" stop-color="#BC2D21"/><stop offset=".28" stop-color="#B52C21"/><stop offset=".684" stop-color="#A2291F"/><stop offset="1" stop-color="#8E261E"/></linearGradient><path class="st7" d="M243.6 46.7l-6.4 5.9-6.4 5.9c.2-2 .4-3.9.7-5.9.2-2 .4-3.9.7-5.9h-10.9c-.6 5.2-1.2 10.4-1.7 15.7l-1.7 15.6h10.9c.3-2.5.6-5.1.8-7.6 2.1-1.7 4.2-3.5 6.2-5.2l3 6.4 3 6.4h13.5l-5.7-9.7-5.6-9.7 7.1-5.9 7.1-5.9h-14.6z"/><linearGradient id="SVGID_6_" gradientUnits="userSpaceOnUse" x1="272.031" y1="46.724" x2="272.031" y2="77.995"><stop offset="0" stop-color="#BC2D21"/><stop offset=".28" stop-color="#B52C21"/><stop offset=".684" stop-color="#A2291F"/><stop offset="1" stop-color="#8E261E"/></linearGradient><path class="st8" d="M269.6 53.1h3.1c2 0 3.4.3 4.1 1 .7.7.9 1.5.8 2.5-.1 1-.7 1.8-1.6 2.5-.9.7-2.4 1-4.6 1h-2.7c.3-2.4.6-4.7.9-7m-10.3-6.4c-.6 5.2-1.2 10.4-1.8 15.7l-1.8 15.6h11c.2-1.9.4-3.9.7-5.8.2-1.9.4-3.9.7-5.8h6c4.4 0 7.8-.9 10.1-2.7 2.4-1.8 3.7-4.2 4.1-7.4.4-3.1-.4-5.4-2.1-7.1-1.8-1.7-4.7-2.5-8.6-2.5h-18.3z"/><linearGradient id="SVGID_7_" gradientUnits="userSpaceOnUse" x1="299.882" y1="46.724" x2="299.882" y2="77.995"><stop offset="0" stop-color="#BC2D21"/><stop offset=".28" stop-color="#B52C21"/><stop offset=".684" stop-color="#A2291F"/><stop offset="1" stop-color="#8E261E"/></linearGradient><path class="st9" d="M299.8 60.5c.9-1.9 1.7-3.8 2.6-5.6.4 1.9.9 3.8 1.3 5.6l1.3 5.6h-7.8c.9-1.9 1.8-3.8 2.6-5.6m-2.2-13.8c-2.8 5.2-5.7 10.4-8.5 15.7l-8.4 15.6h11.2l2.3-5.1h12.4l1.1 5.1h11.4l-4.8-15.6c-1.6-5.2-3.2-10.4-4.8-15.7h-11.9z"/><linearGradient id="SVGID_8_" gradientUnits="userSpaceOnUse" x1="338.454" y1="46.724" x2="338.454" y2="77.995"><stop offset="0" stop-color="#BC2D21"/><stop offset=".28" stop-color="#B52C21"/><stop offset=".684" stop-color="#A2291F"/><stop offset="1" stop-color="#8E261E"/></linearGradient><path class="st10" d="M346.2 46.7c-.2 1.8-.4 3.7-.7 5.5-.2 1.8-.4 3.7-.7 5.5h-11.8c.2-1.8.4-3.7.7-5.5.2-1.8.4-3.7.7-5.5h-10.9c-.6 5.2-1.2 10.4-1.9 15.7l-1.8 15.6h10.9c.3-2.1.5-4.2.7-6.3l.8-6.3h11.8l-.8 6.3-.8 6.3h11l1.9-15.6c.6-5.2 1.3-10.4 1.9-15.7h-11z"/><linearGradient id="SVGID_9_" gradientUnits="userSpaceOnUse" x1="127.551" y1="46.453" x2="127.551" y2="77.727"><stop offset="0" stop-color="#BC2D21"/><stop offset=".28" stop-color="#B52C21"/><stop offset=".684" stop-color="#A2291F"/><stop offset="1" stop-color="#8E261E"/></linearGradient><path class="st11" d="M111.3 46.5c-.3 2.6-.5 5.2-.8 7.7h11.1l-1.2 11.8c-.4 3.9-.8 7.8-1.2 11.8h10.9c.4-3.9.8-7.8 1.2-11.8.4-3.9.8-7.8 1.2-11.8h11.2c.3-2.6.5-5.2.8-7.7h-33.2z"/><path class="st12" d="M96.1 59.7l-.2-.5c-1.2 2-3.7 5.7-4.1 6.4l-3.1 4.6c-1.3 2.1-2.8 4-4.1 6.2l-.1.2.2.5 11.2-17c0-.2.1-.3.2-.4zM80.2 67.6l1.1-1.5c1.6-2.2 3-4.1 4.5-6.3l6.1-8.6-.2-.4-2.7 3.9c-2.9 4.1-5.9 8.4-8.9 12.5-.1.1 0 .2.1.4zM96.4 24.3l-.6.2c-.2-.2-.1-.7-.5-.5l-.1.8c-.4.1-1 .1-1.3-.3-.7-.8-.6-1-.6-1.1-.6-.3-.4-.1-.8-.2l-.8-.4c-.6-.1.2.5-1.9 0l-.5.4c.8.3 1.5.5 2 .8-.3.8.2 2.2.4 3.3.1.3.1.3.1.5l.2.6-6.3-1.9-.5.5c.9.3 1.9.6 2.7.8l3.3 1c.5.2.8.4 1.1.6.4.3.6.5 1 .4.4 0 .5.1.8.1.5-.2.2-.6 1.1-.5l1.4.7.3-.3.5.5c.8-.3-.4-.6 1.7-.1 1.4.3 2.7.7 4.1 1.1l2.8-2.6-4.9-1.2c1.1-.2 3 1.1 4 .7l-1.9-.6c.2 0 .1 0 .3.1.5.1 2.1.4 2.9.7l.4-.4-10.1-2.5-.3-1.2zM13.4 6.4h-.8l-2.8.5c.4.1 1.9-.2 3.6-.5zM31.3 70.1l8-11.6c.4-.6.8-1.2 1.2-1.7.1-.6.1-1.2.2-1.7l-3.1 4.5c-.9 1.3-1.9 2.9-2.9 4.2l-6.5 9.2c-1 1.3-2.2 3-3.3 4.6h1.1c1.6-2.3 3.9-5.4 5.3-7.5zM8.4 7.1v.3c.4-.1.8-.3 1.2-.3h-1.2zM28.1 69.8l4.1-5.8c1.6-2.3 3.2-4.2 4.8-6.7.7-1 2.1-2.8 3-4.2.4-.6.8-1.2 1.3-1.8l.2-1.5-6.1 8.5c-.5.8-1.2 1.7-1.7 2.4-.6.7-1.2 1.6-1.7 2.4-2.2 3.3-4.7 6.5-7 9.7 0 .1-.1.2-.2.2 0 0-.1.1-.1.2 0 0 0 .1-.1.1l-3.1 4.3h1.1c1.8-2.6 3.6-5.3 5.5-7.8zM34.3 77.4c-.1.1-.1.2-.1.3h1.6c.2-.4.4-.7.5-.9l2 .6c.2-1.4.3-2.8.5-4.1-.1-.3-.2-.6-.3-.8l.4-.1s0 .1.1.1c.2-2.2.5-4.2.7-6.1-.5 1.2-1.1 2.4-1.7 3.6h-.5c.1.7 0 .9-.3 1.7-.8 1.3-2.3 4.5-2.9 5.7zm3.6-1.7c.3.4.3.7.3 1.1l-1.7-.6c.7-.3.7-.3 1.4-.5zm-.4-1.6c.2.3.3.3.2.9h-.8c.2-.3.3-.6.6-.9zM66.1 49.9c-.1.1-.1.2 0 0zM19.7 18.7l.2-.3c.7-.2 1.8.1 2.5.2 1.3.1 5.6.4 6.5.7l1.1.5c.2-.1.1 0 .3-.3.6 0 9.6.9 10.4 1.1l1.6.4c.1-.1.1-.1 0-.1l.1-.1c.2-.1 1-.1 1.9 0l.1-1.2c-.1-.1-.1-.2.1-.4.2.2.2.2.2.4h1c.2-.6.7-1.4 1-1.6.7-.3 1.4.4 1.6.9-.4.3-.9.5-1.5.7h1.3c.2-.1.4-.1.5-.2l.2.2h.6l-.3-.5.6-.1c.1.2.1.4.1.6h.8l.3-1c.6.1 2.3.2 2.6.6-.2.1-.4.3-.7.4h1.6v-.2c.3-.1.2-.1.5-.1 0 .1.1.2.1.2h.4v-.2l.4.2h.2l.2-.3 1.5.3h16.1v-.1h.9v.1h16.4l1.9-.5c2-.5 3.3-.7 5.3-1.1l.1.2c.1.3.1.2.3.5v-.9l4.5-1.1c6-1.5 7.7-1.9 13.9-2.8-.4 1-1.8 2.7-2.5 3.7-1 1.5-1.6 2.7-2.8 3-1.2.3-2.3.7-3.6.9-5.7 1.1-11.5 1.9-17.2.1l-.2.2c.4.1.7.2 1.2.4 7.2 1.8 13.9.1 20.6-1.6-.7 1.4-2.3 3.3-3.2 4.6-.6.9-.3.1-1 1.3l2.4-2.2 2.4-3.5c.5-.7.5-.7 1.3-.9l2.1-.9.1-.1-2.8.9 3.2-4.6c1.3-1.8.4-1.5 4.2-1.9.1.3.2.8.2 1.2l4.4-4c-.1-.2-.2-.5-.2-.8v-.4l-.1-.5c0-.4.7-1-.4-1.6-.4-.2-.6-.4-.9-.5 0 0-.1 0-.2-.1l-.9.5-1.7-.6h-11.4l.6.2.7.3.9.4 1.7.7c-.3.2-.2.2-.5.2l-1.6.2-2.2.2-13.3.7c-3 .1-5.8.3-8.8.5-1.5.1-3 .1-4.4.4-.7.1-3.6.8-4.2.7.9-1.4 1.9-3 2.9-4.4h-3.2c0 .3 0 .9-.1 1.2-.2-.2-.4-.7-.5-1.2h-.4c.2.6.5 1.6.4 1.9-.4-.4-.8-1.2-1.1-2h-1.8c.4.8.3 2.2.1 2.3h-.2c-.3-.1-.1-.8-.1-1 0-.4 0-.9.1-1.3h-.5c0 .6-.1 1.4-.2 1.6l-.6-1.6h-2.8l-.6.7-1.4 1.9-2 .5 1.4.1c-1.1 1.9-2.4 2.2-4.4 2l-7-.7c-.8-.1-1.1-.2-1.8-.6-.8.4-.2.4-1.5.2-.8-.1-.8-.1-1.4-.5-.5.1-.4.3-.9.3l-3.2-.3c.3-.2.7-.2 1-.2-1.3-.2-3.2.2-4.7-.1l-1.7-.5-.1.6c-1.3-.1-2.7 0-4-.2-.3 0-.3-.1-.4-.1-.1 0-.1-.1-.6 0-.9.2-3.3-.2-4.2-.3-.6.5-1.9-.1-3-.4l-.1.6c-.7-.1-1.8-.1-2.6-.1-1.2 0-5.8-.1-6.6-.2l-.7-.5c.5 0 .9-.3 1.3-.4-.7 0-3.5.5-4.4.7-1.4.2-7.7-.2-9.2-.3l-.1.9c.2-.3.7-.6 1.1-.5.2.1.5.2.5.3l-1.3.7-.3-.4-.3 3.4c.3.3.4.7.4 1.1-.2.1-.4 0-.5 0l-.1.9.2.3-.3.3v.3l.5-.2.4.5c-.3.3-.2.5-.8.5h-.2v.4l8.1.8 4.2.8zm105.9-8.3h-.7c-.1-.1-.2-.2.1-.4.2-.2.2-.2.4-.2.2.2.2.2.2.6zm-.2-1.6c-.3.3-.4.3-.8.2.2-.4.3-.4.8-.2zm-3.3 4.2c.3.1.3.1.4.3 0 0-.1.2-.3.1-.2-.1-.1-.2-.1-.4zm-41.8-6.2l-.3-.1c.3-.3.4-.2.3.1zm-.3 1.2c-.2.4-.5.9-.8 1l-.1-.6c.5-.3 0-.2.9-.4zm-11.2 6.5c.3-.3.6-.5 1.1-.5-.3.5-.5.5-1.1.5zm3.5-.2c-.3-.2-.2 0-.3-.4-.1-.2 0-.3 0-.6l.5.1-.2.9zm10.2 4l-.1-.4c.2.1.4.2.6.4.1.1.1.1.1.2l-.6-.2zm3.2-4.5c-.1-.1-.2-.2-.3-.4.3-.3.1-.2.6-.2.4 0 .4 0 .8.1-.4.4-.8.6-1.1.5zm.5 2.1l1.7.6c-.3.1-.7.1-1.1-.1-.2-.1-.4-.2-.5-.4l-.1-.1zm.8 3.1c-.3-.5-.5-1.5-.7-2.1l3.4 1.5c-.5.2-.8.2-1.3.3-.3.1-1 .3-1.4.3zm3.3.2l-.2.1c-.2 0-.3 0-.5.1-.3.1-.6.2-.9.2l1.9-.5-.3.1zm.5-1.1l-3-1.3c.1 0 .1-.3.8-.1.3.1 2.4 1.1 2.8 1.2-.1.1-.3.1-.6.2zm1.3-3l2-.2-.3.9h-1.6l-.1-.7zm.9 2.4c-.4-.2-.4-.7-.5-1.4l1.3-.1-.8 1.5zm2.7.5c-.4 0-.7 0-1 .1.5-.4 1.1-.7 1.9-.5-.2.1-.6.3-.9.4zm-2.3-.6l.8-1.6 1.3-.2h-1.2l.5-1c.3 0 .7-.2 1 0 .3.1.7.5.8.8l-1.1.2c1.4.2.2-.8 2.3.7-.5.5-3.7 1-4.4 1.1zm4.9-3.2l1.9-.2c-.5.8-.2.8-.8 1.1l-.1.1.2.2-.6.8-.2-.8.6-.2-.7-.1-.3-.9zm.1 2.9c.1-.3.1-.2.5-.3.2 0 .5-.1.6-.1-.3.1-.6.6-1.1.4zm3.3-.6c-.4.1-.6.2-1.1.2.5-.4 1.2-.8 2-.4-.2-.1-.6.1-.9.2zm.4-1.1l-2.6.6c.4-1.1.8-.9 2-1.1l.4-.1-1.7.1.7-1 1.2.7c-.1 0-.1.1-.2.2l.9.3c-.2.3.1.1-.7.3zm2.8-1.1l-.2-1c.5-.2 1.6-.3 2.1-.3-.5 1.4-1 1.3-1.9 1.3zm1.4-3.8c.4-.4 2-.2 2.6-.2-.6.2-1.8.5-2.6.2.1.1.1 0 0 0zm.5 4.6c.5-.4 1.3-.7 2-.4-.3.2-1.5.5-2 .4zm12.6-3.4c.2-.3.1-.2.5-.4l.1 1h-1l.4-.6zm-1.6-.6c.3-.1.7-.2.9-.1 0 .6-.2 1.1-.7 1.5-.2-.4-.2-.9-.2-1.4zm-1.2-1.3l-.4.7c-.6-.1 0 .2-1.3 0l1.7-.7zm.3 1.5c.4.4.4.7.4 1.2h-.1c-.2.3-.6.1-1 0-.2-.1-.4-.2-.5-.3-.5-.3-.5-.3-.8-.7l2-.2zm-3.4.5c.3 0 1.9.7 1.9.9-.2 0-.3.1-.7.1l-2.5.2c.3-.3 1-1.1 1.3-1.2zm-1.3.6c-.3.3-.3.5-.8.7-.1-.2-.1.1-.2-.6.4-.2.2-.1 1-.1zm-1.6 1.9h-1.1l.5-.1c.7-.3.6.1.6.1zm-.5-.9c-.6.5-2.7.6-3.5.6.5-.9 1.3-1.8 2.5-1.3.5.2.8.5 1 .7zm-.3-4c-.3.2-.5.1-.9.1.3-.2.6-.4.9-.1zm-2.1 0c-.4.1-1.3.5-1.8.2-.1 0-.2-.1-.3-.2h2.1zm-1.9 1.4l-1.7.2-.1-.5c.8-.2 1.7 0 1.8.3zm-2 3.7l.3.4-1-.1s.4.1-1.2-1.1c.9-.2 1-.2 1.9-.2.1.2.2.3.2.5.1.4.1.3-.2.5zm0-3.3l-.2-.7c.2.3.2.4.2.7zm-.8-.7c.4.2.3.3.4.7l-1 .1c.1-.4.2-.6.6-.8zm-1.9-.7c-.2 0-.6.2-1.1.2-.3 0-.9 0-1.3-.2.5.1 1.8-.3 2.4 0zm1.1.8c-.3 1-.8.9-1.3 1-.6.1-1.2.1-1.7.3-.4-.2-1.2-.7-1.4-1 .6-.3 3.6-.3 4.4-.3zm-4 1.3l-.4.1c-.2-.3-.2-.2-.2-.5.3.1.5.2.6.4zm-1.6 2.6l.7-.2c.2.3.3.6.3 1l-1-.8zm.4-3.6c.3.3.2.1.3.6.1.5.2.4-.1.6-.2-.3-.3-.8-.2-1.2zm-.5.1c.3.3.4.7.4 1.1-.5.2-.3.1-.9.1l.5-1.2zm-.5 0l-.6 1.2-1.3.2-1.2-1.4h3.1zm-2.9 1.2c.3.4.1 0 .2.3l-1.3.2h-.4c-.4-.5-.2-.1-.5-1.5.7-.2 1.5.4 2 1zm-1.9 3.9c-.4 0-.4 0-.8.1.5 0 .4-.1.9.1.2.3.2.5.2.9l-1.7-.9.7-.1c-.9-.2-.4.3-1.3-.1-.2-.1-.6-.3-1.1-.5l3-.4.1.9zm-.7-4.8c.3.4.5 1 .5 1.4-.4-.2-.5-1.1-.5-1.4zm-2 2.2c-.4.1-.3.2-.7 0 .3-.4.2-.4.6-.4.8-.1 1.2 0 2.1.1-1 .3-1.4.1-2 .3zm1.9-.8l-2 .1 1.5-1.4c.4.2.4.9.5 1.3zm-4.9-.7c.2-.1.1 0 .3-.5l2.9-.1c-.2.2-1.3 1.4-1.5 1.5-.3.2-1.6.1-2 .1l-.3-1.4.6.4zm-.6 5.9c-.5-.4-.7-.2-.4-.8.4.2.4.4.4.8zm-.4-1.1c-.3.2-.5.3-.8.2-.1 0-.2-.1-.3-.2.2-.2 1-.6 1.1 0zm-.5 1.5c-.2-.1-.9-.4-1.1-.6l-.2-.4c.4 0 1.3.3 1.3 1zm-1.2-1.2c-.2.1-.4.1-.5.1-.1-.1-.2-.2-.3-.5.1-.1.4-.2.8.4zm-1.7.1l-.3.3.4.2.3 1c-1 .2-1.2 0-2.1-.3.1-.2.4-.5.6-.6.4-.3.3-.1.8-.3l-.4-.1c.4-.4.3-.3.7-.2zm-2.4-4.9c-.3.2-.4.3-.8.2.2-.2 0-.2.4-.2.1-.1.2 0 .4 0zm-.4-2.1c-.2.2 0 .1-.3.2l-.3.2h-.2c.2-.5.2-.6.8-.4zm-.8-.9l-.5.8c-.4-.3-.9-3.2-1-3.6.9.5 1.3 1.8 1.5 2.8zm-1.3.4c-.6-.3-.3-.6-.4-1.1.2.2.4.8.4 1.1zm-.2.1c.3.2.4.4.5.7l-.4.9c-.5-.4-.5-1.1-.1-1.6zm.4 4.9c.2.1.3.2.4.2l.1.1s.1 0 .4.1c.5.1 1.8.7 2.7 1l.6.3c-1.1 1.5-1.8 1.4-3.4 1.6l-1.3.2c.2 0 2.5-.2 3-.3-.1.3-.5.6-.8.9-.5.4-1.9.4-2.3.3l-1.1-.6c.5-.3.6-.1 1.1-.3l.1-.1-.9-.1-.6-1.2 2-2.1zm-1.8-3.7l-.3.5-.9-.4c.1-.1.1-.1.2-.1h1zm-1-3.4c.4.4.5 1.6-.4 1.6l.4-1.6zm-1-.1v.8c-.3-.2-.4-.5 0-.8zm-.8 2.1c.5.3.4 0 .2.5-.4-.3-.3-.1-.2-.5zm.4 1.7c.2.2.2.6-.1.7h-.3c-.4-.2-.8-.7-.9-1 .2-.2.8-.5 1.3.3zm-3.6.2c.3-.1.9-.4 1.3-.3.2 0 .7.5.8.6.4.4.2.1.2.4h-2.7l.4-.7zm.6 1.7c-.3.2-.3.3-.8.4l-.1-.5.9.1zm-2 0c.4.3.4.4.3.9-.4-.4-.4-.4-.3-.9zm-2.4.4l.5.4c-.1.3-.3.8-.5.9-.2.2-.2.2-.6 0 0-.4.3-.7.6-1.3zm-2.7 5.8c-.4-.2-.5-.4-.5-.7.4.1.6.3.5.7zm2.1-3.3c-.2 0 0 .1 0 .1s-.1 0-.2-.1l-.2-.2c.2-.1.4 0 .4.2zm-.5-2.7l-.5 1c-.4-.2-.4-.7-.5-1 .4-.1.7-.1 1 0zm-1.4.5c-.3-.2-.3-.1-.5-.5.5 0 .5.1.5.5zm-.5.7c-.2.1-.4.1-.4.1-.1-.1-.1-.3-.3-.6l.7.5zm-.9 4.6h-.3c-.2-.1-.2-.3-.1-.6.3.2.5.2.4.6zm-.4-4.1c.2.2.2.8.1 1.1l-.5-.2c0-.1 0-.3.1-.5.1-.3.1-.3.3-.4zm-.6-1.7c.3.2.3.3.2.6-.3-.2-.2-.1-.2-.6zm-.5 1.9c.4.3.4.4 0 .7-.2-.3-.3-.4 0-.7zm-.4 1.3c-.6-.4-.2-.2-.4-.9-.4-1.3-.6-1.2-1.9-2.3l1.3.1c.1.5 0 .3.2.8.3.5.4 1.4.5 1.5.2.4.3.3.3.8zm-.3-4.7l-.6.5c-.3-.3-.3-.3-.4-.6l1 .1zm-1.7-.1c.3.3.3.3.3.7l-1.4-.4c.3-.2 0-.2 1.1-.3zm-.5 2.4l-.2-.1c-.2-.1-.2-.1-.3-.3l-.2-.5c.5 0 .7.5.7.9zm1.4 3.9c.1.1.2.1.3.1.4.2.3.1.6.7l-2.8-.4c-.2-.3-.1-.6-.1-1l1.3.1-.1-.6-1.4-.4v-.6c1.2 0 1.8.2 2.2 2.1zm-9.2.5c-.1 0-.2-.1-.3-.2.2-.1.1-.2.5-.2.2 0 .5.1.6.1-.3.3-.5.4-.8.3zm1.3-1v-1.4c.3.3.3.4.6.8.3.5.3.4.4.8l-1-.2zm1.9.3c-.2-.5-.3-1.1-.3-1.6.4.2 1.1 1.3 1.2 1.7-.3.1-.5.1-.9-.1zm3-2v.6c-.5-.2-.3-.3-.5-.7l.5.1zm-1.3-2.1c.2-.1 1.3-.4 1.2.1-.4.2-.4.1-1.2-.1zm1.2-2.2c-.1.5-.3.4-.7.5-.4.1-.5.2-.9.2l-.5-.9 2.1.2zm-1.4 4.8l.2.6 1.3 1.3c-.6 0-.9-.1-1.2-.2-.5-.2-.7-.8-1.4-1.9l1.1.2zm-1.7-5.1c.6 0 .2.1.3.2-.2.1-.1.2-.2.2 0 0-.1-.1-.3-.2l.2-.2zm-.4 5.9l-1.3-2 .9.2c.4 1.3.2.4.4 1.8zm-.8-4.7l-1.5-.1c.7-.3 1-.3 1.7-.5l-.2.6zm-2.4-1.7l2.4.3c-.3.4-2.1.9-2.4.9l-.4-.5.4-.7zm.3 4.1c1.2.1 1 .1 1.1 1.5 0 .4.1.7 0 1.1l-1.7-.3-.1-.9 1.3-.6-1.6-.7c.4-.2.5-.1 1-.1zm-3.2 4.3c0-.5.6-.9.9-1-.4.7-.6 1-.9 1zm.1-3.5c.5.2.5.2.3.7l-.3-.7zm1.1-5c-.4.2-.7.3-.9.2-.1 0-.2-.2-.3-.3.3-.1.5 0 1.2.1zm-1.7 3.1c.3.5.5 1 .6 1.5 0 0-.1 0-.1-.1-.3-.1-.3-.3-.4-.6-.2-.3-.2-.4-.1-.8zm-27.7 2.8c-.5-.2-.4-.1-.3-.5.4 0 .5.1.3.5zm-1.5-3.3c.3.4.8 1.1 1 1.5-.3.1-.5.1-.7 0-.6-.3-1-1.2-1.6-2.2.8-.3 1 .2 1.3.7zm-1.4-2.7c.3-.2.6-.2 1-.1l-.5.8c-.4-.2-.5-.3-.5-.7zm2.4 4.7c.7.1.2 0 .3.2 0 .3-.2.5-.4.4-.1-.1-.3-.3-.4-.6h.5zm.7-.3c-.1 0-.2-.1-.3-.3l-.3-1.6.9 1.5c.1.3.1.1.1.4-.1-.1-.2.1-.4 0zm.9 0c-.4-.3-.9-1.7-1.1-2.3.2.3 1 1.9 1.1 2.3zm-.6-3.6l1-.7c.1.4.1.4-.1.8l-.9-.1zm.4 2.2c.3.3.9 1.1 1 1.4h-.3c-.4-.2-.7-1-.7-1.4zm.1 2.3l.4.7-.8.4c-.3-.5-.1-.8.4-1.1zm.2 1.9c-.2-.1-.3-.2-.5-.4l.8-.5.4.8c-.3.1-.5.1-.7.1zm.8-1l.2.4c-.3-.2-.3-.1-.2-.4zm.2-.5c-.3-.3-.4-.4-.3-.8l.4.1-.1.7zm.2-1.9c-.7-.5.1-.3-.5-.8l-.6-.8.8.1c.2.4.4 1.1.3 1.5zm-.4-3.2c.3-.6.1-.4.6-.2l-.6.2zm.8 5.9l-.2.1h-.1l.1-.8c.5.1.7.4.2.7zm.2.2l.1-.2s.1 0 .2.1c-.1.2-.1.2-.3.1zm0-1.4c-.1 0-.1-.1-.2-.2.3-.1.2-.1.6 0-.1.1-.3.3-.4.2zm-.1-2.8c.3.4.6 1.8.6 2.2l-.6-2.2zm.5-.2c.4.3 1.5 1.9 1.6 2.4l-.2.1-.9-.1-.5-2.4zm.4 4c-.4-.2-.4-.3-.1-.5.2.2.2.2.1.5zm.4-.4v-.7h1.1c-.3.4-.7.8-1.1.7zm1.6 0s.4.1-.4.4l-.6.2c.2-.3.8-.8 1-.6zm.2 1.7c-.5 0-.8 0-1-.1-.2-.1-.3-.2-.6-.5l1.7-.7.4.5-.5.8zm6-2.3l-1-2.1 1 1.4c.3.3.3.2 0 .7zm.1 1.4c-.1 0-.1 0-.2-.1s-.1-.1-.3-.9c.4.2.2.1.3.4.2.4.2.4.2.6zm-.6-1.5h-.1c-.3-.1-.3-.2-.4-.6-.1-.3-.3-.4-.2-.9.3.3.7 1.3.7 1.5zm-.7-4.7c-.3.2-.4.5-.8.3h-.1c.3-.3 1.2-.6 1.6-.7-.2.2-.4.2-.7.4zm-.4 3.5c.2.6.4.9.4 1.3-.1 0-.1 0-.2-.1-.7-.3-.7-1.5-.8-2.2.2.1.6.8.6 1zm-.3 1.7c-.2.3-.4.5-.7.4 0 0-.1 0-.1-.1-.3-.2-.1-.3-.2-.3.4-.2.5-.1 1 0zm-.7-1.2c-.6-.5-1-1.3-1.2-2l.8.2c.1.3.4 1.5.4 1.8zm-.4-3.3c.2-.2.1-.3.5-.1-.1.3-.2.3-.3.3l-.2-.2zm-.7 2.3c.2.3.9 1 .6 1.4-.2 0-.1.1-.1.1s-.1-.1-.3-.2l-.3-.3c-.7-1-.6-.9-1.1-2 .8.1.9.5 1.2 1zm-.4.8c.1.1.2.2.2.3.2.3.1.2.1.4-.3 0-.4 0-.5-.1-.2-.1-.3-.4-.7-1.4l-.1-.5v-.1l-.1-.4c0 .3.8 1.5 1.1 1.8zm-1.1 1.2c-.1.2-.2.2-.3.3h-.3c-.1-.1-.1-.2-.1-.2h.3l.4-.1zm-.6-4.3c-.1 0-.2-.1-.3-.2l.4-.3c.3.2.3.1.3.5-.1 0-.2.1-.4 0zm.7 5.4l-.5-.3c.1-.3.2-.3.5-.2v.5zm1.6-1.1c.4.2.5.5.7.8-.3.3-1.1.6-1.6.8-.7-.9.2-1.2.9-1.6zm1.1 2.2h-.2c-.4.1.2.3-1.1.2-.2 0-.3 0-.4-.1l-.3-.2c0-.6.8-.7 1.7-1 .3.3.4.4.2.9l.4.1c-.2.2-.2.1-.3.1zm.1-1.1c.3-.6.8-.4.4.2l-.4-.2zm.5.7v-.2c.4 0 .2.1.3.3-.2-.1-.3-.1-.3-.1zm1-1.4l.5.9c-.3.3-.5.4-.9.4-.4-.5-.1-.9.4-1.3zm.3 2.3h-.3c-.1 0-.1-.1-.3-.3l.9-.6.4 1c-.2 0-.4 0-.7-.1zm.9-.6c-.1-.4-.2-.1-.2-.6.3.2.3.2.2.6zm.1-1.1c-.2-.2-.1-.1-.2-.3v-.3c.5 0 .4.1.2.6zm-1.1-3.8l.9.1c.2.4.4 1.5.4 2-.6-.5-1-1.4-1.3-2.1zm2.1 5.1s-.5-.1.3-.5c0 0 .4.3-.3.5zm.9-.6c-.2 0-.1.1-.4-.2v-.1l.4-.5c.2.3.3.4 0 .8zm-.1-4.1c.3.2 1.6 2 1.6 2.5l-1.2-.2-.4-2.3zm.5 2.9l1 .2c-.3.3-.5.4-.8.6-.2-.4-.2-.4-.2-.8zm1.9.6c.1.4.1.3-.5.6-.3.1-.6.4-.9.2.3-.3 1.1-.7 1.4-.8zm-.8 2.1l-.7-.6 2-.8.3.5-.5 1-1.1-.1zm1.7-4.8l-.3-.7c.2 0 .2 0 .3.2.1.2 0 .3 0 .5zm.4 2.4c-.4.2-.4.3-.9.2.4-.2.5-.3.9-.2zm-.4-4.6c-.1 0-.1.2-.3.1-.1 0-.2-.1-.3-.3.2-.1.1-.2.3-.1.6.2.2.2.3.3zm-.2 6.9c.3-.5.2-.5.6-.2l-.6.2zm.3-1.3c-.3-.5.2-.6.6-.4l-.2.3c-.3.2-.2.1-.4.1zm.7.9c-.2-.1-.3-.2-.4-.3-.1-.4.2-.4.2-.4.3.3.2.3.2.7zm-.4-5c.3.1 1.5 1.8 1.7 2.3.2.4.1 0 .1.5l-1.4-.2c-.3-.6-.3-1.8-.4-2.6zm2.7 3.9l-1.9.9c-.7-1.9 1.3-2.1 1.9-.9zm.3-1.1l-.4-2.6h.8c.2.4.2.9.3 1.4.1.4.2.9.2 1.3l-.9-.1zm.7.6c-.3.2-.4.4-.6.3-.1 0-.2-.1-.3-.3.2-.2-.1-.2.4-.2.1.1.4.2.5.2zm-2.8 2.3l-.1-.5 2-1 .4.5c-.5 1.5-.5 1.3-2.3 1zm2.2 0l.3-.4.3.2-.6.2zm.4-1.3c-.1 0-.1-.1-.2-.2 0 0-.3-.1.1-.3.2-.1.4 0 .6 0-.2.3-.3.6-.5.5zm.8 1c-.5-.3-.7-.6-.2-1 .2.3.2.6.2 1zm0-4c.3.2.7 1.2.7 1.6l-.7-.1c-.2-.4-.4-.9 0-1.5zm1.8.8c-.5-.4-.6-1-.9-1.8.8 1 1.2 1.3.9 1.8zm.1 2.3c-.4-.2-.4-.2-.5-.9.5 0 .7.4.5.9zm-.7-1.5c-.4-.3-.9-1.9-1-2.4.4.5 1.3 1.7 1 2.4zm-1.1.8c.7-.7.9-.2 1.2.8l-1 .5-.2-1.3zm.4 2.3v-.6l1.1-.4c.2.3.4.7.5 1.3l-1.6-.3zm1.7-.6c-.2-.3-.3-.4-.3-.8.5.2.4.3.3.8zm.7-.3c-.3-.3-.3-.3-.1-.8.4-.3.3-.3.9-.2-.4.6-.3.8-.8 1zm.2.5c.3-.8.3-.7.8-1 .2.4-.5.9-.8 1zm1.9.6c-.1.1 0 .1-.3.1-.2 0-.3-.1-.4-.1.2-.1.9-.6.7 0zm-.9-2.1c.2-.1.3-.1.7-.2-.3.4-.2.3-.4.4l-.3-.2zm1.1-.9c-.4.1-.7.1-1.1 0-.3 0-.4 0-.5-.1-.1 0-.1-.2-.3-.5l1.8-.5c.1.4.1.7.1 1.1zm-.2-2l-.4-.4c.4-.2.5-.2.4.4zm-.9-4c.2 0 .4.1.3.3h-.3s.1-.1 0-.3zm-.3 3.2c.5.2 1 .8.9 1.3-.3.3-1.2.4-1.7.5l.8-1.8zm-1-2.8c.2-.1.2-.1.2 0h.1c-.3.4-.1.3-.3.2-.2-.1-.2-.1 0-.2zm.1 2.9c-.1.6-.1.6-.5.7-.3-.2-.2-.3-.2-.7.3-.2.3-.2.7 0zm-.5-2.5c-.3.3-.2.3-.7.2.3-.3.4-.4.7-.2zm-2.8.3l-.2-.1c.5-.5 1.2-.5 1.9-.7-.8.6-1.3 1-1.7.8zm-.3-2c.5-.2 1.3-.1 1.9.1l.1.4c-.2.2-1.9 1-2.3 1l-.4-.5.7-1zm-.9 1.4c.3.5 0 .6-.5.5.2-.4.1-.4.5-.5zm-.4 2.4c.1.6.3 1.6.3 2.1-.5-.4-1.3-1.6-1.4-2.3l1.1.2zm-.9-1.5h-1c-.1 0-.2 0-.3-.1-.1-.1-.2-.2-.4-.5.4-.5 1.4-.7 2-.9.3.7.1.9-.3 1.5zm.2-2.2c.3.4-1.6 1.1-2.1 1.2l-.4-.5c.7-1.6 2.5-.7 2.5-.7zm-2.4 1.4c-.2.3-.2.3-.7.1l.4-.5c.2.1.2 0 .3.4zm-.8-1.1c.2.1.2.1.1.4-.2-.2-.2 0-.1-.4zm-.4 3.6c.2.6.6 1.1.6 1.6h-.2c-.4-.2-.4-.9-.6-1.3l-.6-1.6c.5.1.6.8.8 1.3zm-1-1.9c-.4-.2-.5-.5-.5-.9.5.2.6.5.5.9zm-.8-2c.2.1.2.1.3.3.2.3.1.3 0 .5-.3-.2-.4-.4-.3-.8zm-.5.3c.2.3.3.5.1.8-.2-.2-.2-.4-.1-.8zm.5 1c.3.3.2.2.2.6-.3.1-.4.1-.6 0-.1 0-.2-.1-.3-.2.2-.4.3-.4.7-.4zm-.6 1.9c.4.3.7 2.3.6 2.7l-1.1-.2c-.2-.9.2-1.8.5-2.5zm-.1 3.8c.1.2.1.3-.1.5-.3.2-.3.2-.6.1 0-.2.2-1.2.7-.6zm-.6-3.8c.2.3.1.4 0 .7-.3-.2-.4-.5 0-.7zm-.4-2.5c.1.3.2.2-.1.4-.4-.3-.4-.3.1-.4zm-.6 1.1l-1-.1c.2-.3.6-.5.9-.6.2.3.2.3.1.7zm-2.2-2.1c.6-.5 1-.3 1.9 0-.3.3-.9.1-1.7.2l1.4.1c-.4.4-1.1.5-1.7.7l-.2-.6c.2 0 .3-.1.6-.1l-.3-.3zm-.8 1c.1-.2.3 0 .3 0l.1.1c.1 0 .1 0-.3.3-.1-.2-.2-.2-.1-.4zm-1.3.9l-.9-.8c.3-.3 1.3-.6 1.7-.7.1.7-.4 1.1-.8 1.5zm.1-2.3c.3 0 .2 0 .5.3 0 .2.3.4-.7.4h-1.1l1 .1c-.3.3-.8.6-1.1.5-.1 0-.1-.2 0-.5l-.2-.2c.7-.6.7-.7 1.6-.6zm-1.9 1c.4.2.2.1.4.4-.3.2-.1.2-.5.1l.1-.5zm.2 4.3c-.4-.3-.4-.9-1-1.9-.2-.3-.2-.4-.3-.8.4.3 1.2 2.4 1.3 2.7zm-1.1-1.1c-.3-.2-.5-.5-.5-.7.4-.1.5.3.5.7zm-.8-3c.2.2.3.3.3.6-.2-.2-.4-.3-.3-.6zm-.4.3c.3.1.3.4.2.6h-.5c-.1-.1-.2-.2-.2-.4.1-.2.2-.4.5-.2zm-1.6-2.4c.3-.1.9-.3 1 .1-.2.3.2.3-1 .2l-1-.1c.3-.1.6-.2 1-.2zm-1.9.6c.3 0 1.2-.1 1.1.4l-1.5.7-.5-.3c.1-.6.5-.8.9-.8zm-1.2 3.5c.2.2.1.4.1.6-.1 0-.2 0-.2-.1-.3-.1-.4-.4-.4-.8.2.1.3.1.5.3zm-.2-2c-.3.2-.2.2-.4.2.2-.4 0-.4.4-.2zm-.2-.6c-.1.2.2.1-.3.2-.3.1-.3 0-.4 0 0 0-.1 0-.2-.1.2-.2.6-.6.9-.1zm-.2-.6l-1.7.8-.3-.6c.3-.3 2-.6 2-.2zm-1.4 1.7c-.2.1-.3.1-.4.1-.1 0-.1-.1-.3-.3.2-.7.6-.2.7.2zm-1.1 3.3c-.8-.3-1.3-1.5-1.5-2.2l.9.1 1.5 2.2c-.3 0-.6 0-.9-.1zm1.1.8l-.4.3c-.3-.3-.3-.1-.3-.7.2 0 .7.1.7.4zm-.7-2.6l.1.8c-.3-.3-.7-.8-.7-1.2.3 0 .5 0 .6.4zm-.9-2c.3-.4 0-.3.6-.2-.3.2-.3.2-.6.2zm.3-.8l-1.1.4.3.5c-.5.1-.4 0-.6-.6.1 0 .1 0 .3-.1.2-.1.5-.3.7-.3h.2c.2 0 .2.1.2.1zm-1.3-.9c.7-.1.6.1 1.1.4-.3.2-1.2.5-1.7.3h-.1c.1-.5.4-.7.7-.7zm-.3 1.6c.2.1.2.3.2.5-.2 0-.4 0-.5-.1-.1 0-.1-.1-.2-.4.2-.1.2-.2.5 0zm-2.1 2.2l-.4-.8c1-.1 1 .2 1.5.8.4.6.9.9.8 1.5-.4 0-.6-.1-.8-.2-.4 0-.6-.4-1.1-1.3zm.4 1.5l-.7-1.1c.4.3.7.6.7 1.1zm.7-2.1c.3.1.3.2.3.7-.3-.3-.4-.4-.3-.7zm-.1-2.5c-.2.3-.7.4-1 .3l1-.3zm-1.7.9c.2 0 .3.1.4.2-.2.1-.3.2-.4.1-.1 0-.1-.1-.2-.2.1-.2-.2-.1.2-.1zm-.3 1.5c.3.3.4 1 .5 1.4-.3-.4-.5-1-.5-1.4zm.2 3.1s-.1-.1-.2-.1c-.3-.2-.2-.4-.2-.6l.7.2v.5h-.3zm.5.7c-.3-.3-.4-.1-.2-.5.3.1.2.1.2.5zm.2-1l-.2-.2c.3-.1.3-.2.7 0-.2.1-.4.2-.5.2zm1.1 0l.5.7c-.3.2-1 .6-1.3.5l.8-1.2zm-.3 1.9c-.2 0-.3-.1-.3-.1-.1-.1 0-.1 0-.2.4-.3.8-.7 1.3-.7l.3.4c-.2.8-.7.8-1.3.6zm1.1-1.4c-.2-.1-.3-.3-.4-.6.2-.1-.2-.1.3-.1.2 0 .2 0 .3.1 0 0 .1 0 .1.1 0 .4-.1.6-.3.5zm.3.6c-.1-.1-.1-.1 0-.4.5.2.2 0 .3.5-.1-.1-.2-.1-.3-.1zm.3-2.7c.3.2.3.3.5.5.2.3.3.2.2.6h-.3c-.4-.2-.5-.7-.4-1.1zm1.3 1.8l.5.6c-.5.4-.9.4-1.5.6 0-.6.4-.7 1-1.2zm.6 2.1c-.4 0-.8 0-1.1-.1-.1 0-.2-.1-.3-.2.2-.4 1-.7 1.5-.8.6.4.3.5-.1 1.1zm.8-1c-.2-.1-.2-.1-.3-.1l-.1-.2c.4-.3.5-.1.4.3zm-.3-3.5c.3.3.5.5.7.9.4.5.6.4.2 1-.1 0-.2 0-.3-.1-.4-.1-.4-.8-.6-1.8zm.7 3.8c0-.6.5-1.1.9-1.3.3.2.5.4.6.8-.2.1-1 .6-1.5.5zm1.8-.3l.4.5-.5.8-1.4-.4c.1-.5.6-.5 1.5-.9zM72.1 58c.7-2.3 1.4-4.6 2-6.8.4-1.3.8-2.8 1.3-4 .4-1.3.8-2.9 1.2-4.1 1.1-3.2 2.3-7.4 3.5-11.3l-.4.3c-1 2.7-2.6 8.9-3.6 11.8l-3 9.8-1.5 4.7c.2-.1.4-.3.5-.4zM105.1 28.3l1 .3.2-.2c-.4-.1-.7-.2-1.2-.1zM54.3 31.7c-2 2.8-4 5.6-5.9 8.3l-.2 1.5c1-1.4 2.1-2.8 3-4.2l2.7-3.8.4-.6.1.2.2.4c-.5 1.1-1.9 4.4-2.5 5.2l-4.3 6.3c-.1.5-.1 1-.2 1.6.7-1 1.9-3 2.4-3.3l-1.4 3.4c-.6 1.3-.6 1.1-.9 1.5-.1.2-.3.7-.4 1.2l-.2 1.9-.5 4.3v.1l-.1.7.2-.1c.1.2.1.3.2.6.1.4.1.2 0 .5l-.5-.2c0 .2 0 .4-.1.6l.9.2c.2.9.8 3.3.9 3.9l-2.3.9-.1.9c.6-.3 1.9-1 2.5-1.1.4 1.2.4 1.4.7 2.5.2.7.5 1.9.5 2.6-.3-.2-3.2-3.3-3.7-4l-.1.9c1 1 2.3 2.7 2.9 3.2-.4.1-2-.5-3.1-.9 0 .2 0 .4-.1.6l3.5 1.3c.7.2.4.2.5.3-.3.1-3.4.4-4.2.4l-.3 2.7.1.4s-.1 0-.1.1l-.2 1.4.6-.2c.2.6.9 2.6.7 3.2l-1.4-1.4-.1.9 1.3 1.3h2.2c.1-.2.1-.3.2-.4 0 .1.1.2.1.4h.8l-.2-1.1.9 1.1h3.7c-.2-.3-.2-.8-.2-1.1.4.2.3.5.5.9l.1.2h4.4c.9-3 1.9-6.3 2.5-7.5-.2 1.3-.8 4.2-1.2 5.4l-.5 2h.3l2-8.4c1-4.9 1.9-6.8 3.3-11.5 1.1-3.6 2.8-8.2 3.8-11.7.2-.7.4-1.3.7-2 .2-.5.2-1.1.6-1.5l.2-.2s.1-.5.2-1.1l-1.5 1.4c-.6 1.7-.5 2.3-1.2 2 0-.2 0-.6.1-.9l-1.1 1 .1-.7c0-.1 0-.3-.1-.5-.1-.4-.1-.4-.1-.8l.3-.1c0-.2 0-.4.1-.6h-.1l-.2-.1c.1-.1.2-.2.3-.2l.1-.7h-.1l.1-.4c.2-2 .4-3.9.7-5.9l1-8.9h-.1c0-.1.1-.1.2-.2l.1-.9h-2.7c.1.4.1.8.2 1l-.6-1h-.6c.4.6.8 1.5.8 1.7-.7-.1-1.1-.1-1.3-.2-.3-.1-.3-.4-.5-1.5h-4.6c-1.7 2.2-3.6 4.6-5.1 6.8zm3.2.5l.6-.1c.2.3.1.1.2.5.1.3.1.3.1.6l-.9.4v-1.4zm7.8 3.9c.3.4.4.6 0 1.1-.5-.2-.5-.8-.6-1.8.3.2.4.5.6.7zm-.5-3.1l.2-.4c.2.1.3.2.3.3-.3.2-.1.1-.5.1zm-2.8 25.2h-.5c-.1-.2-.2-.7-.2-.9 0-.3.9-2.9 1.1-3.3l.6-.2c.3 2.3.1 1.4-.3 2.2-.5.6-.6 1.4-.7 2.2zm.7 1.2c-.4.3 0 .3-.6.3 0 0-.2-.2.1-.3.1-.1.3 0 .5 0zm-1 3c-.2-.1-.3-.2-.4-.4-.1-.5.2-.4.2-.4l.2.8zm-9.3 7.1c-1.4.1-.7.3-1.4.2-.1-.4-.1-.3.1-.8.3-.8.8-2.3 1.1-2.7.2.9 1.1 3.7 1 4.4-.6.4-1.1.8-1.6.6l.1-.8.8-.1-.1-.8zm-1.4 2.1s0 .1-.2 0c0 0-.1 0-.1-.1-.3-.2-.1-.2-.1-.3.4.1.3 0 .4.4zm2-6.2c.5.5 1.6 1.4 1.4 1.9-.1.4-.1.3-.1.3s0-.1-.1 0l-.8-.2c-.1-.4-.5-1.5-.4-2zm10.2-34.1c-.1 0-.2.1 0 0-.7.3-.4.2-.8.2l.8-.2zm-.8 5l-2.9-.5-.5-2.4 1.3-.5c.4.4 2.2 3.1 2.1 3.4zm-1.9 4.2l-.5-2.1c.4-.2 1.5-.8 1.9-.7l-1.4 2.8zm1.3 2.1c-.1.1 0 .1-.3.2h-.4c.2-.4.2-.5.7-.2zm-1 9l.3-.6c.1 1.2.2 1.3-.5 2.6-.6-.7-.1-.8 0-1.3.1-.4-.2-.1.2-.7zm-.9-1.4v-.6000000000000001c-.1-.4-.2-.3-.2-.4v-.1c.6.5.7.5.8 1l-.6.1zm-.2-13.7l2.1.4c-.4.3-1.3.7-1.8.8l-.3-1.2zm-.5 1.6c-.3-.3-.3-.5-.5-.9s-.3-.5-.2-1c.4.6 1 1.3.7 1.9zm0 4c.1.3.3.7.2.9l-1.3-.3c-.1-.3-.2-.5-.2-.9-.1-.7-.5-2.1-.5-2.5l.5-.2c.7 1.3.8 1.8 1.3 3zm-.7 2c-.1 0-.2-.2-.1-.5.3 0 .5 0 .8.2-.2.1-.5.3-.7.3zm.4 5.8h-.3c-.1 0 0-.1 0-.3.4 0 .2 0 .3.3zm-3.2.6l-.9-4.1 2.5-1.1c1 1.4 1 1 .4 2.5-.3.8-.9 2.3-1.2 3l-.8-.3zm.7 9.2c.2 1.1.5 1.2-.1 2.5 0 0-2.3 1.1-2.9 1.2 0-.1-.1-.1-.1-.1v-.3l.4-1.1c.4-.9 1.5-4 1.8-4.4.8 1.4.5.7.9 2.2zm-1-8h-.3c-.3-.1-.5-.5-.5-.8l.7.2c.1.3.1.3.1.6zm1.3-8.5l1 .3c.2.3.2.7 0 .9-.1 0-.2 0-.3-.1-.4-.1-.7-.9-.7-1.1zm.8-.5c-.4.1-.7 0-1-.1-1-.4-1.6-1.7-1.7-2 .5-.2 1.6-.8 2-.8l.7 2.9zm-2.5-.5c-.3 0-.6 0-.8-.1-.4-.2-.6-.5-.4-1.1l.3-.1c.4.4 1 .8.9 1.3zm1.9 2.5c-.6.3-1.5.9-2.1.9-.3-.5-.3-.9-.4-1.5-.1-.4-.3-1.1-.3-1.5 2.3.8 1.6.3 2.8 2.1zm-1.9 5.6c-.4 0-.7-.1-.9-.2-.4-.2-.5-.5-.9-.9-.4-.5-.9-1.2-1.2-1.7.5-.2 1.7-.9 2.2-.9.3.8 1 3.1.8 3.7zm-2.4-1.1s.2.2.2.3l.1.3c-.6-.1-1.1-.2-1.4-.3-.5-.2-.7-.6-.7-1.4l.6-.3 1.2 1.4zm-1.4.8l2.3.6c.3.2 1.1 1.2 1.1 1.5-.5.2-2.2 1.1-2.6 1.1-.3-.2-1-2.9-.8-3.2zm1.2 8.9c-.2 0-.4-.1-.5-.1-.3-.1-.3-.3-.6-.7-.5-.7-2-2.3-2.2-2.9.5-.2 1.8-.9 2.3-1 .2.8 1.1 4.1 1 4.7zm-.3-5c.7-.3 2.3-1.1 3-1.2l.5.7-2.3 5.5c-.4-.3-1.3-4.6-1.2-5zm2.4 15l.4.9s-.1.2-.3.2c-.3.1-.1.1-.4.1l.3-1.2zm-.4-3.7c-.4-.2-.8-.5-.9-1 .5-.2 2.4-1.1 2.8-1.1l-.8 2.2c-.2 0-.1.1-.4 0-.3 0-.5 0-.7-.1zm1.4 1l.6.2-.3.9c-.6-.3-.8-.7-.3-1.1zm.4-.5c-.3-.1-.1-.6.1-1.1.2-.4.4-1.3.8-1.9l.4.6c0 .2-.8 2.4-.8 2.4-.3.1-.4 0-.5 0zm1-6.4l-.1-.3c-.1-.3-.2-.9-.2-1.3l1 .3-.5 1.3h-.2zm.9 7.8c.3.2.4 1 .4 1.4-.4.3-.7.5-1.1.4.2-.6.4-1.4.7-1.8zm-1 2.9l.9 1.1-.7 1.9c-.3-.2-.6-.9-.7-1.3-.1-.5.2-1.2.5-1.7zm.9-.1c-.3-.3-.1-.2-.1-.3l.7-.3-.3.8c-.2-.1-.2-.1-.3-.2zm0-8.2c-.3-.2-.4-.2-.4-.6 0-.6.6-1.4.7-2.1.4 1.1.5.9-.3 2.7zm.3-4.3c-.3-.3-.7-.8-1-1.2.4-.2 1.3-.7 1.7-.7l-.7 1.9zm1.2-1.5c.7.4.3 1.1-.1 1.9l-.5-.2c0-.5.4-1.1.6-1.7zm-.2-1.2l-.7-.2v.6000000000000001c-1 .4-1.4.6-1.7.5-.1 0-.2-.1-.2-.2.1-.8 1.3-3.5 1.7-4.6.2-.6.5-.5 1.1-.1l.3 1.1c0 .9-.1.4.2 1.1l-.7 1.8zm.9.1c.1.1.1.1.2.1s.1 0 0 .3c0 .2-.2.3-.3.5-.1-.3-.4-.4.1-.9zm.6 4.4c.3.5.4.4.5 1-.3.2-.6.3-.8.2 0 0-.1 0-.1-.1l.4-1.1zm.6 1.8c-.1.2-.2.4-.3.3-.1 0-.1-.1-.2-.3.4-.1.2-.1.5 0zm-1.1-12.7l.8-.6c0-.2-.1-.4-.2-.5-.6 0-.6-.1-.9.1l1.1-3.3.8.2.2.5.5.1-.5 2.6c-.3.8-1.5 1-1.8.9zm2.4-5.8c.3-.2.2-.3.5.1-.2.1.2.2-.3.1h-.2c-.1-.2 0-.2 0-.2zm.6 1.2h-.3c-.1 0-.1-.1-.1-.3.3 0 .3-.1.4.3zm-.5 2.9c.2.2.3.3.2.7h-.3c-.1-.3-.1-.2.1-.7zm.1 1.4l-.9 2.5-.4-.5c.2-.5.4-.6.5-.9.2-.4 0-.4.3-1l.5-.1zm.2 4.4l.3-.8c.7.2.8.5.7 1-.3.2-.2.2-.6.2l-.4-.4zm.6-7.9l.4.6c-.2.4-.3.8-.6 1-.3-.5-.2-1.1.2-1.6zm-.5-3.4c0-.1.1 0 .1 0s.1.1-.1-.2c-.1-.2-.1-.2-.2-.2h-.2s-.1 0-.1-.1c-.3-.2-.2-.2-.2-.3 0-.2-.2-.1.2-.8l2 .5-.6 1.6c-.9 0-1 .1-.9-.5zm1.5 1.9c-.2.3-.2.3-.3.3 0 0-.1 0-.2-.1.3-.4 0-.3.5-.2zm-.2-.7c.2-.3.2-.3.6-.2-.3.3-.3.4-.6.2zm.3-.9c0-.3-.1-.3.1-.7.2-.3.3-.4.4-.5.3.4.4 1.2-.5 1.2zm.9 6.7c-.2-.2-.4-1-.4-1.3 1-.4.9.5.4 1.3zm-.1-3l.5-.2.3 1-.3.1c-.3-.3-.4-.5-.5-.9zm-.5-6.4c0 .3-.1.5-.2.7h-.2l-1.7-.4 1.8-.8c.2.1.3.1.3.5zm-.3-1.2c-.4.3-1.1.4-1.6.5l1-2.6c.3.2.2 0 .4.9.1.4.2.8.2 1.2zm-.7-4.5c-.3.6-.5 1.2-.7 1.8-.2-.4-.5-2.2-.6-2.7l1.8-.7c.1.5-.2.9-.5 1.6zm-.7-2.3c-.3.1-.6.1-1 0 .2-.3 1.3-.5 1.8-.3-.2.3-.4.2-.8.3zm-1.1-.9l-.1-.7 1-.4c.3.3.5.6.6.9l-1.5.2zm0 3c.1.6.3 1.2.3 1.8-.6-.5-.6-.9-1.1-1.6l-.1-.1-.1-.1h1zm-1.3-.6l-.3-.5c.3-.3 1-.4 1.4-.1-.2.5-.7.6-1.1.6zm.1-1.1c-.3.1-.5.1-.8 0 .2-.4 1.1-.4 1.6-.3-.3.2-.5.2-.8.3zm-.7 1.3c-.3.4-.7.5-1.1.5l-.1-1.1.8-.1c.2.4.3.5.4.7zm-.9-1.1c-.2.1-.3.2-.4.1l-.2-.2.3-.1c.8.1.2 0 .3.2zm-.5 4.5c-.1 0-.2 0-.3-.1-.7-.3-.7-1.3-.6-1.5l.5-.4c.4.3.6 1.6.4 2zm-1.3 1.7c.2.5.6 1 .1 1.4h-.1c-.3-.1-.4-.8-.4-1.2-.1-.5-.2-1-.2-1.5.4.7.3.4.6 1.3zm-1.4-1.6l.7 3.1-2.1 1-1.1-1.7c1.1-1.9 1.4-3 2.5-2.4zm-2.5 3.9c.4.3.3.2.2.6-.3-.3-.3-.2-.2-.6zm-.9.6c.1-.1.1-.2.1-.2h.1c.4.5.1.7-.4.6l.2-.4zm.6 1.4l-.9-.2c.3-.3.9-.7.9.2zm-1.4.4l1.6.3c.1.7.7 2.7.7 3.4-.6.3-1.8.9-2.4 1l-1.3-1.8 1.4-2.9zm-.9 5.2c-.1 0-.2 0-.2-.1-.3-.1-.2-.5-.3-.9.4.2.6.5.5 1zm-1.2-.4c.3.3.2.4.3.7-.2.1-.4.3-.7.2l.4-.9zm.4 1.3l.2.7c-.4 0-.8-.1-1.3-.3.3-.2.7-.3 1.1-.4zm-1.4 1.1c.4 0 1.5.1 1.7.5l.8 3.7c-.4.3-.3.2-.6.3-.4.1-1.1.6-1.9.8l-1.6-2.1 1.6-3.2zm-1.7 4.4c.3.3.7.8.9 1.1-.3.2-.3.2-.6.2-.2-.3-.4-.8-.3-1.3zm.4 2l.9-.3 2.2 2.5c.2.3.1.2.2.4l-2.9-.9c-.2-.5-.4-1.2-.4-1.7zm1.4 5.7c-.3-.7-.8-2.5-.8-3.2.7 0 .5 0 1.3.3 1.5.4 2.4.5 2.9 1.6-1 .6-.5.3-1.7.8-.6.2-1.4.5-1.7.5zm.1.8c.7-.3 2.9-1.4 3.6-1.5 0 .3-.2.9-.4 1.5-.6 1.4-1.4 3.7-1.9 4.6-.3-.3-.3-.6-.4-1.1l-.9-3.5zm-3.5 9.2l2.5-.2c-.2.2-2 .8-2.3.8-.2-.3-.1-.2-.2-.6zm1.2 4.4c-.4-.5-.7-2.1-.9-2.9l2.4-.8-1.5 3.7zm.6-5.2c-.6.1-1.4.3-2 0l-.1-.5.5-.1c.7-.1 2.9-.4 3.3-.1-.1.8-1.1.6-1.7.7zm3.5 6.9l-2-2.2.4-1.4c1 1.5.6.9 1.2 1.6l.2.4c.1.3.3.7.5.9l-.3.7zm1.2-3.8c-.6-.2-.4-.3-.4-.8 0-.4-.3-.6-.5-.8.4.5.9 1 .9 1.6zm1 2.5c-.3-.2-.5-.7-.5-1 .5.2.6.6.5 1zm.2-2.1c-.6-.4-.1-.5-.2-1.3l.8-.7c0 .6-.1 1.6-.6 2zm.7-5.3c-.1-.1-.2-.9-.2-1 .5.1.7.1.2 1zm.7 8.6c-.2-.1-.2-.2-.4-.4l.5-.7c.3.3.4.8.4 1.2-.3-.1-.4-.1-.5-.1zm.5-9.3l-.1-.5.5.3c-.1.8-.2.8-.2.7h-.1c-.3-.4-.1 0-.1-.5zm.7 7.5c-1-.4-.5-1.4.3-3.5l.7 1.2-.2.6.2.1c-.3 1-.3 1-.8 1.8-.1-.1-.2-.1-.2-.2zm.6 1.5l.1-.5.7.3c-.3.1-.5.3-.8.2zm1.7-2.4c-.4 1.1-.3 1.6-.8 1.6-.1 0-.2 0-.2-.1l-.3-.2c0-.4 1.2-4.1 1.5-4.6l.7.8-.9 2.5zm.5-4.6c.3.3.3.5.3.9-.5-.3-.5-.4-.3-.9zm.3-3.5c-.4-.2-.5-.8-.5-1.2 0-.3 1.1-3.5 1.2-3.8.4-.8 1 .2 1.1.5 0 .2-1 3.1-1.1 3.5l-.2.6-.3.3s-.1 0-.1.1h-.1zm1 2.5c-.1.3-.2.5-.3.7-.5-.2-.4-.5-.5-1l.9-.4-.1.7zm-.3-1.2c-.1-.3-.1-.2-.1-.5l.6.2c-.3.3-.1.1-.5.3zm1.5-2.3c-.4 1.4-.4 1.6-1.1 1.4l-.3-.1 1.4-4.2.7.8-.7 2.1zm1.6-5l-.6-.1c.2-.4.4-.4.7-.4l-.1.5zm1.3-3.9l-.5 1.7-.3.4h-.3l-.1-.3-.1-.5c0-.6.2-.6.4-.9.5-.6.2-1.5.7-2.3.5 1 .4 1 .2 1.9zm0-7.2c0-.5.4-1.5.6-2l.7 1-.9 2.6c-.2-.3-.4-1.3-.4-1.6zm.8 3.6c-.1-.2-.5-.3.2-.4-.1.5-.1.5-.2.4zm0-1h-.2c-.1 0 .1 0 0-.1.2-.1.2-.2.4.1-.1 0 .2.1-.2 0zm2.7-6.3c0 .3-.1.4-.3.6-.3-.4-.1-.6.3-.6zm-.8 2.5l-.5 1.5v.2l-.3.1c-.1.4-.2 1.2-.5 1.3h-.2c-.5-.2.8-2.7 1-3.7l.2.4.3.2zm1.3-19.5c.2.3.2.2.1.5l-1.2-.2c.4-.1.6-.3 1.1-.3zm-.9 1.5c.1 0 .1.1.9-.3.1.6-.2.9-.5 1.6l-.8-1.2c.3-.2.4-.1.4-.1zm-.6 5.8c.2.2.3.2.2.4-.2-.1-.3-.1-.3-.1l.1-.3zm-.7 3.2c-.3-.3-.3-.5-.2-.9.1-.4.2-.7.5-.9.4.3.2.8-.3 1.8zm.2-3.6c-.4-.3-.4-.4-.6-.7-.2-.3-.4-.4-.3-.8.7 0 1.7.7.9 1.5zm-.2-8.3c-.2.6-.3 1.3-.7 1.6-.2-.3-.3-.7-.2-1.2.2-.3.4-.4.9-.4zm-.6-.6c-.3.2-.4.3-.6.2l-.2-.1c.3-.3.3-.3.8-.1zm-.8 2.6c-.5-.3-.6-.7-.7-1.1l.4-.1c.2.3.3.7.3 1.2zm-.5-2l-.5.3-.7-1.1 1.3.2-.1.6zm-.7-2.8c.3.3.4 1 .4 1.4-.4 0-.9 0-1.3-.2l-.3-.1c.5-.4.5-1.1 1.2-1.1zm-1.6 1.9c.4 0 .4.3.6.6.2.4.3.5.4.9l-.9.3c-.2-.3-.1-.5-.2-.9-.1-.7-.2-.6.1-.9zm-.1 3.3c-.3.3-.6.2-1 .3-.6.1-.3.1-1 0 .6-.4 1.1-.6 1.8-.7l.2.4zm-.4-1.2c-.5.3-.9.4-1.3.5.2-.4.8-1.5 1.2-1.6.1.3.2.7.1 1.1zm-.4-2.2c-.1.4-1.6 2.4-1.8 2.5l-.4-.4c.2-.7.5-1.2.9-1.7.4-.7.1-.6 1.3-.4z"/><path class="st0" d="M105.6 78.1h-21l-.1-.2c-1.6-3.4-8-16.9-10-21.3l-1.7 1.4c-2.8 2.3-5.5 4.6-8.3 7l-.4 3.6-1 9.2v.4h-19.4l.1-.5c1-8.8 2-17.7 2.9-26.5 1-8.8 2-17.7 3-26.6v-.4h19.4l-1.2 10.5-1 8.9 25.2-23.6h-47.2l-.8 7.5c-.4 4-.8 8.1-1.3 12.1l-.1.8c-.7 6.3-1.4 13.5-4.1 37.3v.4h-19.4l.1-.5c2.7-23.5 3.4-30.7 4.1-37.1l.1-1.1 2-19.5h-18.9v-.5c.5-4.3 1-8.7 1.4-13v-.4h123.2l-42.1 38.8 16.5 33.3zm-20.4-.8h19.1l-16.2-32.7 41-37.7h-120.3c-.4 4-.8 8.1-1.2 12.2h18.9v.5l-2.1 20-.1 1.1c-.7 6.3-1.4 13.5-4 36.6h17.7c2.7-23.5 3.4-30.6 4.1-36.9l.1-.8c.4-4 .8-8.1 1.3-12.1l.9-8.3h50.1l-28.7 26.6.1-1.1 1.1-10 1.1-9.6h-17.7l-2.9 26.2c-1 8.7-1.9 17.4-2.9 26h17.7l1-8.8.4-3.9.1-.1 8.4-7.1 2.6-2.1.2.5c1.7 3.5 8.3 17.5 10.2 21.5zM362 75l1.8-14.8h22.4l-1.8 14.8z"/><path class="st1" d="M363.4 73.7l1.5-12.2h19.9l-1.5 12.2z"/><linearGradient id="SVGID_10_" gradientUnits="userSpaceOnUse" x1="374.087" y1="64.889" x2="374.087" y2="70.301"><stop offset="0" stop-color="#BC2D21"/><stop offset=".28" stop-color="#B52C21"/><stop offset=".684" stop-color="#A2291F"/><stop offset="1" stop-color="#8E261E"/></linearGradient><path class="st13" d="M380.9 64.9l-.6 5.4h-13.1l.6-5.4h13.1z"/><path class="st0" d="M422.6 83.9c-6.9 0-12.1-1.7-15.8-5.1l-.6 4.4h-21.9l5.6-42.6h21.9l-.4 3.3c4.1-2.7 9.4-4.1 15.5-4.1 6 0 10.8 1.3 14.4 3.8l.4-3h38.2l-2.6 19.6h-16.1l-3.1 23.5h-22.1l.4-2.9c-4 2-8.7 3.1-13.8 3.1z"/><path class="st1" d="M442.9 42.1l-.6 4.4c-2.9-3-7.7-5.2-15.5-5.2-7.3 0-13.2 2.1-17.4 6l.7-5.2h-19l-5.3 39.7h19l.8-6.3c2.8 4.1 7.9 7.1 16.8 7.1 6.2 0 11.6-1.6 15.6-4.5l-.6 4.3h19.2l3.1-23.5h16.3l2.2-16.6h-35.3z"/><linearGradient id="SVGID_11_" gradientUnits="userSpaceOnUse" x1="416.673" y1="45.657" x2="416.673" y2="77.992"><stop offset="0" stop-color="#BC2D21"/><stop offset=".28" stop-color="#B52C21"/><stop offset=".684" stop-color="#A2291F"/><stop offset="1" stop-color="#8E261E"/></linearGradient><path class="st14" d="M442.3 57.7c.6 13.3-7.2 20.3-19.8 20.3-10 0-15.1-4-15.5-13.2h-4.4l-1.6 12.5h-10l4.1-30.8h10l-1.4 10.7h4.7c2.5-7.5 8.8-11.5 18.5-11.5 9.9 0 15.1 4 15.4 12zm-24.4 6.8c.2 3.7 2.1 5.7 5.7 5.7 4.8 0 8.2-4.1 7.8-10.9-.2-3.7-2.1-5.7-5.7-5.7-4.8-.2-8.1 4.2-7.8 10.9z"/><linearGradient id="SVGID_12_" gradientUnits="userSpaceOnUse" x1="457.878" y1="46.477" x2="457.878" y2="77.751"><stop offset="0" stop-color="#BC2D21"/><stop offset=".28" stop-color="#B52C21"/><stop offset=".684" stop-color="#A2291F"/><stop offset="1" stop-color="#8E261E"/></linearGradient><path class="st15" d="M473.1 46.5l-1 7.8h-16.1l-3.1 23.5h-10.2l4.1-31.3h26.3z"/><path class="st0" d="M22.1 123.1h-1.9v-19.4h1.9v19.4zm11.5 0h-2.4l-7.7-10 7.5-9.5h2.3l-7.5 9.3 7.8 10.2zM58.4 123.1h-2.1l-2.8-6.5h-9l-2.8 6.5h-2.1l8.4-19.4h2.2l8.2 19.4zm-5.7-8.3l-3.7-8.9-3.8 8.9h7.5zM78.3 123.1h-1.9v-7.8h-4.6c-.9 0-1.7-.1-2.4-.2-1-.2-1.8-.5-2.4-1-.7-.6-1.2-1.3-1.5-2.2-.2-.6-.3-1.4-.3-2.4v-5.8h1.9v5.8c0 .7 0 1.2.2 1.6.2.7.5 1.2 1 1.6.4.3 1 .6 1.8.7.5.1 1 .1 1.6.1h4.6v-9.9h1.9v19.5zM98.1 123.1h-10.7v-19.4h10.7v1.8h-8.7v7h8.4v1.8h-8.4v7.1h8.7v1.7zM125 118c-.9 1.7-2.1 3-3.7 4s-3.3 1.4-5.2 1.4c-2.9 0-5.3-.9-7.3-2.8s-3-4.4-3-7.3c0-2.9 1-5.3 2.9-7.2 1.9-1.9 4.3-2.9 7.2-2.9 2 0 3.8.5 5.4 1.4 1.6.9 2.8 2.2 3.6 3.9h-2.3c-.5-.8-1.2-1.5-1.9-2.1-1.3-1-2.9-1.5-4.7-1.5-2.4 0-4.4.8-5.9 2.4-1.5 1.6-2.3 3.5-2.3 5.8 0 2.4.8 4.3 2.4 5.9 1.6 1.6 3.6 2.4 5.9 2.4 1.3 0 2.4-.3 3.6-.9 1.2-.6 2.2-1.6 3-2.8h2.3zM142.4 105.4h-4.4v17.7h-2v-17.7h-4.4v-1.8h10.8v1.8zM162.1 117.6c0 1.3-.4 2.4-1.1 3.3-1.2 1.5-3.1 2.2-5.9 2.2h-5.3v-19.4h4.9c1.7 0 3 .2 4 .7 1.6.8 2.5 2.3 2.5 4.4 0 .9-.3 1.8-.8 2.5-.4.5-.9 1-1.5 1.4 1.1.3 2 1 2.6 2 .4.8.6 1.8.6 2.9zm-2.9-8.9c0-1.1-.3-1.9-1-2.5-.7-.5-1.8-.8-3.4-.8h-2.9v6.6h2.9c1.2 0 2.2-.2 2.8-.5 1-.5 1.6-1.5 1.6-2.8zm1 8.9c0-1.6-.6-2.6-1.8-3.3-.8-.4-1.9-.6-3.3-.6h-3.4v7.6h3.4c1.3 0 2.4-.2 3.2-.6 1.3-.5 1.9-1.6 1.9-3.1zM189.9 113.3c0 2.9-1 5.3-3 7.3-2 1.9-4.4 2.9-7.3 2.9-2.9 0-5.3-.9-7.3-2.8s-3-4.3-3-7.2c0-2.9 1-5.3 3-7.2 2-1.9 4.4-2.9 7.3-2.9 2.9 0 5.4.9 7.3 2.8 2 1.8 3 4.2 3 7.1zm-2 0c0-2.4-.8-4.4-2.4-5.9-1.6-1.5-3.6-2.3-6-2.3s-4.4.8-6 2.4c-1.6 1.6-2.4 3.6-2.4 6s.8 4.4 2.4 5.9c1.6 1.5 3.6 2.3 6 2.3s4.4-.8 6-2.4c1.6-1.6 2.4-3.6 2.4-6zM260.1 123.1h-1.9v-9.1h-10.2v9.1h-1.9v-19.4h1.9v8.6h10.2v-8.6h1.9v19.4zM286.5 123.1h-2.1l-2.8-6.5h-9l-2.8 6.5h-2.1l8.4-19.4h2.2l8.2 19.4zm-5.7-8.3l-3.7-8.9-3.8 8.9h7.5zM312.3 126.8h-1.9v-3.7h-16.2v3.7h-1.9v-5.4h1.8l7.2-17.7h2.1l7.2 17.7h1.8v5.4zm-3.8-5.4l-6.2-15.2-6.2 15.2h12.4zM330.4 123.1h-10.7v-19.4h10.7v1.8h-8.7v7h8.4v1.8h-8.4v7.1h8.7v1.7zM347.3 113l-7.7 10.1h-2.4l7.8-10.3-7.2-9.1h2.3l7.2 9.3zm2.8 10.1h-1.9v-19.4h1.9v19.4zm11 0h-2.4l-7.7-10.1 7.2-9.3h2.3l-7.2 9.1 7.8 10.3zM382.5 123.1h-1.9v-9.1h-10.2v9.1h-1.9v-19.4h1.9v8.6h10.2v-8.6h1.9v19.4zM411.4 113.3c0 2.9-1 5.3-3 7.3-2 1.9-4.4 2.9-7.3 2.9-2.9 0-5.4-.9-7.3-2.8-2-1.9-3-4.3-3-7.2 0-2.9 1-5.3 3-7.2 2-1.9 4.4-2.9 7.3-2.9 2.9 0 5.4.9 7.3 2.8 2 1.8 3 4.2 3 7.1zm-2 0c0-2.4-.8-4.4-2.4-5.9-1.6-1.5-3.6-2.3-6-2.3s-4.4.8-6 2.4c-1.6 1.6-2.4 3.6-2.4 6s.8 4.4 2.4 5.9 3.6 2.3 6 2.3 4.4-.8 6-2.4c1.6-1.6 2.4-3.6 2.4-6zM438 118c-.9 1.7-2.1 3-3.7 4-1.5 1-3.3 1.4-5.2 1.4-2.9 0-5.3-.9-7.2-2.8-2-1.9-3-4.4-3-7.3 0-2.9 1-5.3 2.9-7.2 1.9-1.9 4.3-2.9 7.2-2.9 2 0 3.8.5 5.4 1.4 1.6.9 2.8 2.2 3.6 3.9h-2.3c-.5-.8-1.2-1.5-1.9-2.1-1.3-1-2.9-1.5-4.7-1.5-2.4 0-4.4.8-5.9 2.4-1.5 1.6-2.3 3.5-2.3 5.8 0 2.4.8 4.3 2.4 5.9 1.6 1.6 3.6 2.4 5.9 2.4 1.3 0 2.4-.3 3.6-.9 1.2-.6 2.2-1.6 3-2.8h2.2zM455.4 105.4h-4.4v17.7h-2v-17.7h-4.4v-1.8h10.8v1.8zM475.3 117.4c0 1.7-.6 3.1-1.7 4.1-1.1 1.1-2.6 1.6-4.5 1.6h-6.4v-19.4h1.9v8h4.5c1.9 0 3.5.5 4.5 1.5 1.2 1.1 1.7 2.4 1.7 4.2zm-1.9 0c0-1-.3-1.8-.8-2.5-.7-.9-1.9-1.4-3.4-1.4h-4.5v7.9h4.5c1.5 0 2.6-.5 3.4-1.4.5-.8.8-1.6.8-2.6zM226.2 123.4h-1.9v-16.7l-11.6 16.7h-2v-19.4h1.9v16.7l11.6-16.7h2v19.4zM498 44.7h-1.1l-1.1-.1c-2.9-.5-5.5-1.8-7.7-3.9-2.6-2.4-3.9-5.6-3.9-9.4v-.9000000000000001c.2-4 1.5-7.4 3.9-9.9s5.7-3.8 9.7-3.8h.3c3.9 0 7.2 1.4 9.8 4.2 2.6 2.8 4 6.1 4 9.8v.3c-.3 4.4-1.8 7.7-4.4 10.2-2.5 2.3-5.7 3.5-9.5 3.5z"/><path class="st1" d="M498 43.2h-1l-1-.1c-2.6-.4-4.9-1.6-7-3.6-2.3-2.1-3.4-4.9-3.4-8.2v-.7c.2-3.8 1.3-6.8 3.5-9s5.1-3.4 8.8-3.4h.3c3.5 0 6.5 1.3 8.9 3.8 2.4 2.5 3.6 5.5 3.6 8.7v.3c-.2 3.9-1.6 6.8-3.9 9-2.4 2-5.3 3.1-8.8 3.2z"/><path class="st2" d="M498.2 20.1c3.1 0 5.6 1.1 7.6 3.2 2 2.2 3 4.6 3 7.3v.4c-.2 3.2-1.3 5.7-3.3 7.4-2 1.8-4.5 2.7-7.5 2.7h-.9c-.3 0-.6 0-.9-.1-2.2-.4-4.3-1.4-6.1-3.1-1.8-1.7-2.8-3.9-2.8-6.7v-.4c.1-3.3 1.1-5.9 2.9-7.8 1.8-1.9 4.4-2.9 7.5-2.9h.5zm-5.9 4.9c-1.4 1.5-2.2 3.5-2.2 5.8s.7 4.3 2.1 5.8c1.4 1.5 3.3 2.3 5.6 2.3 2.4 0 4.3-.7 5.8-2.1 1.5-1.4 2.3-3.4 2.3-5.9 0-2.7-.8-4.7-2.4-6-1.6-1.4-3.4-2-5.5-2h-.4c-2.1-.2-3.9.6-5.3 2.1zm6.6 0c1.7 0 2.9.3 3.5 1 .6.7.9 1.4 1 2.2v.4c0 .8-.2 1.5-.7 2.2-.4.6-1.3.9-2.6.9l2.8 4.7h-3l-2.4-4.4h-1.9v4.4h-2.9v-11.4h6.2zm1.5 4.7c.3-.3.4-.6.4-1v-.2c-.1-.4-.2-.7-.5-1-.3-.3-.7-.4-1.3-.4h-3.1v3h3.3c.5 0 .9-.1 1.2-.4z"/></svg>