<?xml version="1.0" encoding="utf-8"?>
<!-- Generator: Adobe Illustrator 20.1.0, SVG Export Plug-In . SVG Version: 6.00 Build 0)  -->
<svg version="1.1" id="Слой_1" xmlns="http://www.w3.org/2000/svg" xmlns:xlink="http://www.w3.org/1999/xlink" x="0px" y="0px"
	 viewBox="0 0 192 192" style="enable-background:new 0 0 192 192;" xml:space="preserve">
<style type="text/css">
	.st0{fill:#919191;}
	.st1{fill:#2D2D2D;}
	.st2{fill:#CD1B21;}
</style>
<g id="Слой_2">
	<path class="st0" d="M53.9,38.9h84v132.2h-84L53.9,38.9z"/>
	<path class="st1" d="M19.9,135.1h152v24h-152L19.9,135.1z M20.1,105.1h152v24h-152L20.1,105.1z M19.9,75.1h152v24h-152L19.9,75.1z
		 M19.9,45.1h152v24h-152L19.9,45.1z M29.9,45.1h24v113.8h-24L29.9,45.1z"/>
	<path class="st0" d="M120.9,20.9h6v18h-6V20.9z M64.9,20.9h6v18h-6V20.9z"/>
	<path class="st2" d="M161.9,125.7l-24,24v9.2h7.8l16.2-16.2V125.7z M137.9,64.8l19.7-19.7h-17l-2.7,2.7V64.8z M161.9,108.7v-17
		l-24,24v17L161.9,108.7z M161.9,74.7V57.8l-24,24v16.9L161.9,74.7z M53.9,125.7l-24,24v9.2h7.8l16.2-16.2V125.7z M29.9,64.8
		l19.7-19.7h-17l-2.7,2.7L29.9,64.8z M53.9,108.7v-17l-24,24v17L53.9,108.7z M53.9,74.7V57.8l-24,24v16.9L53.9,74.7z"/>
	<path class="st0" d="M19.9,99.1h152v6h-152L19.9,99.1z M20.1,129.1h152v6h-152L20.1,129.1z M19.9,69.1h152v6h-152L19.9,69.1z"/>
</g>
</svg>
