<?xml version="1.0" encoding="utf-8"?>
<!-- Generator: Adobe Illustrator 20.1.0, SVG Export Plug-In . SVG Version: 6.00 Build 0)  -->
<svg version="1.1" id="Слой_1" xmlns="http://www.w3.org/2000/svg" xmlns:xlink="http://www.w3.org/1999/xlink" x="0px" y="0px"
	 viewBox="0 0 192 192" style="enable-background:new 0 0 192 192;" xml:space="preserve">
<style type="text/css">
	.st0{fill:#2D2D2D;}
	.st1{fill:#919191;}
	.st2{fill:#CD1B21;}
</style>
<g id="Слой_2">
	<path class="st0" d="M32.1,149.1h127.8c2.5,0,4.9-0.8,6.8-2.1c2.9-7.3,4.7-15,5.2-23.2v-9.6C169.4,74.5,136.4,43,96.1,43
		c-42,0-76,34-76,76c0,9.9,1.9,19.4,5.4,28.2C27.4,148.3,29.6,149.1,32.1,149.1z"/>
	<path class="st1" d="M26.1,116.2h24v6h-24L26.1,116.2z M142.1,116.2h24v6h-24V116.2z M93.1,73.2v-24h6v24H93.1z M72.1,137.2h48v6
		h-48V137.2z"/>
	<path class="st2" d="M92.5,119.4l20-34.6l5.2,3l-20,34.6L92.5,119.4z"/>
	<circle class="st2" cx="96.1" cy="119.2" r="12"/>
	<path class="st1" d="M126.5,84.6l17-17l4.2,4.2l-17,17L126.5,84.6z M61.4,88.8l-17-17l4.2-4.2l17,17L61.4,88.8z"/>
</g>
</svg>
