<?xml version="1.0" encoding="utf-8"?>
<!-- Generator: Adobe Illustrator 20.1.0, SVG Export Plug-In . SVG Version: 6.00 Build 0)  -->
<svg version="1.1" id="Слой_1" xmlns="http://www.w3.org/2000/svg" xmlns:xlink="http://www.w3.org/1999/xlink" x="0px" y="0px"
	 viewBox="0 0 192 192" style="enable-background:new 0 0 192 192;" xml:space="preserve">
<style type="text/css">
	.st0{fill:#CD1B21;}
	.st1{fill:#2D2D2D;}
	.st2{fill:#919191;}
</style>
<g id="Слой_2">
	<path class="st0" d="M120.1,124H104c2.4-2.2,4-5.4,4-8.9c0-6.6-5.4-12-12-12s-12,5.4-12,12c0,3.5,1.5,6.7,4,8.9H72l-8,48h64
		L120.1,124z M87,115.1c0-5,4-9,9-9s9,4,9,9c0,4.6-3.4,8.3-7.8,8.9h-2.3C90.4,123.4,87,119.6,87,115.1z"/>
	<path class="st1" d="M108,132H84v4h10v28h4v-28h10V132z M92.1,103.7c-0.4-0.7-0.6-1.4-0.6-2.2c0-2.6,2.1-4.7,4.7-4.7
		c0.9,0,1.6-0.7,1.6-1.6v-16c0-0.9-0.7-1.6-1.6-1.6s-1.6,0.7-1.6,1.6v14.6c-3.6,0.8-6.3,3.9-6.3,7.8c0,1.3,0.3,2.6,0.9,3.7
		C90,104.6,91,104.1,92.1,103.7z M95.5,106.1c-1.6,0.1-3.2,0.6-4.4,1.5c1.4,1.2,3.2,1.9,5.1,1.9c4.4,0,7.9-3.6,7.9-7.9
		c0-0.9-0.7-1.6-1.6-1.6s-1.6,0.7-1.6,1.6c0,2.6-2.1,4.7-4.7,4.7C95.9,106.1,95.7,106.1,95.5,106.1z"/>
	<path class="st2" d="M72,61.8v12.1l11.9,11.9h24.2L120,73.9V61.8L72,61.8z"/>
	<path class="st0" d="M120,61.8h-0.7l-24,24h8.4L120,69.6V61.8z M102.2,61.8L81,83l2.9,2.8h2.8l24-24L102.2,61.8z M93.7,61.8h-8.4
		L72.6,74.5l4.2,4.2L93.7,61.8z M76.7,61.8H72v4.7L76.7,61.8z"/>
	<path class="st1" d="M78,20h3v41.8h-3V20z M111,20h3v41.8h-3V20z"/>
</g>
</svg>
