<?xml version="1.0" encoding="utf-8"?>
<!-- Generator: Adobe Illustrator 20.1.0, SVG Export Plug-In . SVG Version: 6.00 Build 0)  -->
<svg version="1.1" id="Слой_1" xmlns="http://www.w3.org/2000/svg" xmlns:xlink="http://www.w3.org/1999/xlink" x="0px" y="0px"
	 viewBox="0 0 192 192" style="enable-background:new 0 0 192 192;" xml:space="preserve">
<style type="text/css">
	.st0{fill:#CD1B21;}
	.st1{fill:#2D2D2D;}
	.st2{fill:#919191;}
</style>
<g id="Слой_2">
	<path class="st0" d="M99,160.5v-90l9.7,9.7L113,76L96,59l-4.2,4.2L79,76l4.3,4.2l9.7-9.7v90l-9.7-9.7L79,155l12.8,12.8L96,172
		l4.2-4.2L113,155l-4.3-4.2L99,160.5z"/>
	<path class="st1" d="M50.4,162.4c-0.9,0-1.6,0.7-1.6,1.6c0,2.6-2.1,4.7-4.7,4.7s-4.7-2.1-4.7-4.7s2.1-4.7,4.7-4.7
		c0.9,0,1.6-0.7,1.6-1.6v-16c0-0.9-0.7-1.6-1.6-1.6c-0.9,0-1.6,0.7-1.6,1.6v14.6c-3.6,0.8-6.3,3.9-6.3,7.8c0,4.4,3.6,7.9,7.9,7.9
		c4.4,0,7.9-3.6,7.9-7.9C52.1,163.2,51.3,162.4,50.4,162.4L50.4,162.4z"/>
	<path class="st2" d="M20,124.4v12.1l11.9,11.9h24.2L68,136.5v-12.1H20z"/>
	<path class="st0" d="M68,124.4h-0.7l-24,24h8.4L68,132.2V124.4z M50.2,124.4L29,145.6l2.9,2.8h2.8l24-24L50.2,124.4z M41.7,124.4
		h-8.4l-12.7,12.7l4.2,4.2L41.7,124.4z M24.7,124.4H20v4.7L24.7,124.4z"/>
	<path class="st1" d="M26,55.9h3v68.5h-3V55.9z M59,55.9h3v68.5h-3V55.9z M171.6,53.2l-5.5-31.5l-0.3-1.7H19.9v6h0.7l-0.7,0.8v9.3
		l8.4-10L28.2,26h0.2l4.2,24H19.9v6h152.2L171.6,53.2z M160.7,26.1l-0.2-0.1h0.1L160.7,26.1L160.7,26.1z M126.9,50l-4.2-24h4.3
		C127,26,126.9,50,126.9,50z M120.9,50H96.6l20-23.9l-0.2-0.1h0.2L120.9,50z M82.8,50l-4.2-24h4.3C82.9,26,82.8,50,82.8,50z
		 M76.7,50H52.5l20-23.9L72.3,26h0.2L76.7,50z M34.4,26h4.4v24h-0.1C38.7,50,34.4,26,34.4,26z M44.8,49.9V26h20L44.8,49.9L45,50
		L44.8,49.9L44.8,49.9z M88.9,49.9V26h20L88.9,49.9l0.2,0.1L88.9,49.9L88.9,49.9z M133,49.9V26h20L133,49.9l0.2,0.1L133,49.9
		L133,49.9z M140.7,50l20-23.9L165,50H140.7z"/>
</g>
</svg>
