<?xml version="1.0" encoding="utf-8"?>
<!-- Generator: Adobe Illustrator 20.1.0, SVG Export Plug-In . SVG Version: 6.00 Build 0)  -->
<svg version="1.1" id="Слой_1" xmlns="http://www.w3.org/2000/svg" xmlns:xlink="http://www.w3.org/1999/xlink" x="0px" y="0px"
	 viewBox="0 0 192 192" style="enable-background:new 0 0 192 192;" xml:space="preserve">
<style type="text/css">
	.st0{fill:#919191;}
	.st1{fill:#CD1B21;}
	.st2{fill:#2D2D2D;}
</style>
<g id="Слой_2">
	<path class="st0" d="M26.7,146.3l-4.6,4.5v8.4L34.9,172l4.6-4.6v-8.3L26.7,146.3z"/>
	<path class="st1" d="M116.4,29.1l-86.1,86.1l-4.2-4.2l86.1-86.1L116.4,29.1z M31,92.3v24h-6v-24H31z M49,116.3H25v-6h24V116.3z
		 M112.3,47V23h6v24H112.3z M94.3,22.9h24v6h-24V22.9z"/>
	<path class="st2" d="M165.3,36l-31.1,36.8l-17-17L154,24.7L165.3,36z"/>
	<circle class="st1" cx="163.9" cy="26" r="6"/>
	<path class="st2" d="M26.7,146.2l4.2-4.2l17,17l-4.2,4.2L26.7,146.2z M30.8,150.6l-4.2-4.2l90.6-90.6l4.2,4.2L30.8,150.6z
		 M43.6,163.4l-4.2-4.2l90.6-90.6l4.2,4.2L43.6,163.4z M49.9,155h-6v-24h6V155z M68,130.9v6H44v-6H68z M67.8,137.1h-6v-24h6V137.1z
		 M86,113v6H62v-6H86z M85.9,118.9h-6v-24h6V118.9z M104.1,94.8v6h-24v-6H104.1z M104.1,100.8h-6v-24h6V100.8z M122.3,76.7v6h-24v-6
		H122.3z M122.6,82.4h-6v-24h6V82.4z M140.7,58.2v6h-24v-6H140.7z"/>
</g>
</svg>
