<?xml version="1.0" encoding="utf-8"?>
<!-- Generator: Adobe Illustrator 20.1.0, SVG Export Plug-In . SVG Version: 6.00 Build 0)  -->
<svg version="1.1" id="Слой_1" xmlns="http://www.w3.org/2000/svg" xmlns:xlink="http://www.w3.org/1999/xlink" x="0px" y="0px"
	 viewBox="0 0 192 192" style="enable-background:new 0 0 192 192;" xml:space="preserve">
<style type="text/css">
	.st0{fill:#2D2D2D;}
	.st1{fill:#919191;}
	.st2{fill:#CD1B21;}
</style>
<g id="Слой_2">
	<circle class="st0" cx="68.2" cy="142.2" r="12"/>
	<path class="st0" d="M68.2,118.7H172v24H68.2V118.7z"/>
	<circle class="st0" cx="98.2" cy="142.2" r="12"/>
	<circle class="st1" cx="68.2" cy="142.2" r="9"/>
	<circle class="st1" cx="98.2" cy="142.2" r="9"/>
	<path class="st0" d="M28.9,118.7H172v6H28.9L28.9,118.7z"/>
	<path class="st1" d="M39.2,112.7L39.2,112.7l-19.2,11v6.5l0.2,0.3l20.5-11.8H172v-6H39.2z M168,148.2h-28c-2.2,0-4-1.8-4-4v-10
		c0-2.2,1.8-4,4-4h28c2.2,0,4,1.8,4,4v10C172,146.5,170.2,148.2,168,148.2z"/>
	<path class="st0" d="M144.4,130.2h3v18h-3V130.2z M160.6,130.2h3v18h-3V130.2z"/>
	<path class="st2" d="M155,118.7h8.5l6-6H161L155,118.7z M138.1,118.7h8.4l6-6h-8.4L138.1,118.7z M121.1,118.7h8.5l6-6h-8.5
		L121.1,118.7z M104.1,118.7h8.5l6-6h-8.5L104.1,118.7z M87.1,118.7h8.5l6-6h-8.5L87.1,118.7z M70.2,118.7h8.4l6-6h-8.4L70.2,118.7z
		 M53.2,118.7h8.5l6-6h-8.5L53.2,118.7z M42.2,112.7L30,124.9l10.7-6.2h4l6-6H42.2z M20,123.7v3l7-7L20,123.7z M120.1,58.7H104
		c2.4-2.2,4-5.4,4-8.9c0-6.6-5.4-12-12-12s-12,5.4-12,12c0,3.5,1.5,6.7,4,8.9H72l-8,48h64C128,106.7,120.1,58.7,120.1,58.7z
		 M87,49.7c0-5,4-9,9-9s9,4,9,9c0,4.6-3.4,8.3-7.8,8.9h-2.3C90.4,58.1,87,54.3,87,49.7z"/>
	<path class="st0" d="M108,66.7H84v4h10v28h4v-28h10V66.7z"/>
</g>
</svg>
