<?xml version="1.0" encoding="utf-8"?>
<!-- Generator: Adobe Illustrator 20.1.0, SVG Export Plug-In . SVG Version: 6.00 Build 0)  -->
<svg version="1.1" id="Слой_1" xmlns="http://www.w3.org/2000/svg" xmlns:xlink="http://www.w3.org/1999/xlink" x="0px" y="0px"
	 viewBox="0 0 192 192" style="enable-background:new 0 0 192 192;" xml:space="preserve">
<style type="text/css">
	.st0{fill:#2D2D2D;}
	.st1{fill:#919191;}
	.st2{fill:#CD1B21;}
</style>
<g id="Слой_2">
	<circle class="st0" cx="68.2" cy="130.6" r="12"/>
	<path class="st0" d="M68.2,107.1H172v24H68.2V107.1z"/>
	<circle class="st0" cx="98.2" cy="130.6" r="12"/>
	<circle class="st1" cx="68.2" cy="130.6" r="9"/>
	<circle class="st1" cx="98.2" cy="130.6" r="9"/>
	<path class="st0" d="M28.9,107.1H172v6H28.9L28.9,107.1z"/>
	<path class="st1" d="M39.2,101.1L39.2,101.1L39.2,101.1l-19.2,11v6.4l0.2,0.4l20.5-11.8H172v-6H39.2z M168,136.6h-28
		c-2.2,0-4-1.8-4-4v-10c0-2.2,1.8-4,4-4h28c2.2,0,4,1.8,4,4v10C172,134.8,170.2,136.6,168,136.6z"/>
	<path class="st0" d="M144.4,118.6h3v18h-3V118.6z M160.6,118.6h3v18h-3V118.6z"/>
	<path class="st2" d="M155,107.1h8.5l6-6H161L155,107.1z M138.1,107.1h8.4l6-6h-8.4L138.1,107.1z M121.1,107.1h8.5l6-6h-8.5
		L121.1,107.1z M104.1,107.1h8.5l6-6h-8.5L104.1,107.1z M87.1,107.1h8.5l6-6h-8.5L87.1,107.1z M70.2,107.1h8.4l6-6h-8.4L70.2,107.1z
		 M53.2,107.1h8.5l6-6h-8.5L53.2,107.1z M42.2,101.1L30,113.2l10.7-6.1h4l6-6H42.2z M20,112.1v3l7-7L20,112.1z M156.2,69.4H34.4v-6
		h121.8V69.4z M51.2,53.6l-17,17L30,66.3l17-17L51.2,53.6z M46.9,83.3l-17-17l4.2-4.2l17,17L46.9,83.3z M140.8,79.1l17-17l4.2,4.2
		l-17,17L140.8,79.1z M145,49.4l17,17l-4.2,4.2l-17-17L145,49.4z M156.2,69.4H34.4v-6h121.8V69.4z M51.2,53.6l-17,17L30,66.3l17-17
		L51.2,53.6z M46.9,83.3l-17-17l4.2-4.2l17,17L46.9,83.3z M140.8,79.1l17-17l4.2,4.2l-17,17L140.8,79.1z M145,49.4l17,17l-4.2,4.2
		l-17-17L145,49.4z"/>
</g>
</svg>
