<svg xmlns="http://www.w3.org/2000/svg" viewBox="0 0 512 512" width="512" height="512"><path d="M464.495 311.423v-148.339c16.827-15.43 26.392-37.106 26.392-60.156 0-45.112-36.702-81.814-81.814-81.814-25.415 0-49.274 11.79-64.604 31.67h-149.17v-36.949h-174.186v58.062h73.897v58.062h-73.897v58.062h174.186v-36.948h149.142c2.782 3.644 5.861 7.003 9.209 10.045v148.306h-353.65v63.34h26.392v121.402h459.217v-121.403h26.391v-63.34h-47.505zm-285.031-137.237h-142.516v-26.392h73.897v-89.732h-73.897v-26.392h142.516v142.516zm42.227-36.949h-26.392v-68.619h26.392v68.619zm113.088 0h-97.254v-68.619h97.254c-4.941 10.62-7.522 22.261-7.522 34.309.001 12.049 2.582 23.69 7.522 34.31zm8.314-34.309c0-13.687 4.096-26.706 11.893-37.719 12.251-17.696 32.469-28.26 54.086-28.26 36.382 0 65.979 29.598 65.979 65.979 0 19.811-8.757 38.358-24.046 50.903-11.933 9.863-26.434 15.076-41.933 15.076-15.499 0-30-5.213-41.933-15.076l-.098-.079c-4.583-3.666-8.625-8.055-12.016-13.046l-.088-.126c-7.748-10.946-11.844-23.965-11.844-37.652zm26.392 160.99v-89.38c12.017 6.702 25.465 10.205 39.588 10.205 14.126 0 27.577-3.505 39.588-10.203v89.378h-79.176zm79.175 15.835v31.67h-79.175v-31.67h79.175zm-58.062 200.577h-269.196v-68.619h269.196v68.619zm79.175 0h-63.34v-84.454h-300.866v84.454h-63.34v-105.567h427.546v105.567zm26.392-121.402h-480.33v-31.67h480.33v31.67zM137.237 87.093h15.835v63.34h-15.835zM137.237 55.423h15.835v21.113h-15.835zM409.072 58.062c-24.74 0-44.866 20.126-44.866 44.866h15.835c0-16.007 13.024-29.031 29.031-29.031 16.007 0 29.031 13.024 29.031 29.031s-13.024 29.031-29.031 29.031v15.835c24.74 0 44.866-20.126 44.866-44.866s-20.126-44.866-44.866-44.866zM287.67 95.01h21.113v15.835h-21.113zM256 95.01h21.113v15.835h-21.113zM398.516 232.247h21.113v15.835h-21.113zM398.516 200.577h21.113v15.835h-21.113zM150.433 438.103h163.629v15.835h-163.629zM335.175 438.103h26.392v15.835h-26.392z" fill="#e62d38"/></svg>
